<?xml version="1.0" encoding="UTF-8" standalone="no"?>
<!-- Created with Inkscape (http://www.inkscape.org/) -->
<svg xmlns:inkscape="http://www.inkscape.org/namespaces/inkscape" xmlns:rdf="http://www.w3.org/1999/02/22-rdf-syntax-ns#" xmlns="http://www.w3.org/2000/svg" xmlns:xlink="http://www.w3.org/1999/xlink" xmlns:ns1="http://sozi.baierouge.fr" xmlns:cc="http://creativecommons.org/ns#" xmlns:sodipodi="http://sodipodi.sourceforge.net/DTD/sodipodi-0.dtd" xmlns:dc="http://purl.org/dc/elements/1.1/" id="svg2" xml:space="preserve" viewBox="0 0 83.05 53.298" version="1.1" inkscape:version="0.91 r13725">
  <g id="g10" transform="matrix(1.25 0 0 -1.25 0 53.298)">
    <g id="g12">
      <path id="path14" style="fill-rule:evenodd;fill:#473725" d="m66.281 17.08c-0.16-0.028-0.359-0.028-0.601 0l-0.282 0.039-0.16 0.16c-0.293-0.215-0.476-0.336-0.558-0.359l-0.602-0.121c-0.105 0.16-0.266 0.253-0.476 0.281 0.21 0.293 0.25 1.16 0.117 2.597-0.133 1.52-0.426 2.641-0.879 3.36 0.105 0.187 0.32 0.496 0.64 0.922 0.239 0.398 0.372 0.758 0.399 1.078l-1.957 0.762c0.183-0.055 0.598 0.105 1.238 0.48 0.215 0.078 0.399 0.188 0.559 0.32 0.082 0.028 0.133 0.067 0.16 0.118 0.215 0.136 0.441 0.281 0.68 0.441l0.16 0.199c0-0.238-0.106-0.73-0.321-1.48-0.238-0.77-0.359-1.278-0.359-1.52l0.039-3.32 0.563-0.039c0.082-1.254 0.238-2.012 0.48-2.281 0.106-0.133 0.547-0.278 1.32-0.438-0.132-0.16-0.203-0.375-0.203-0.641 0-0.187 0.016-0.375 0.043-0.558zm-7.441-6.442-0.16-0.761-0.399-0.118c-0.082-0.027-0.281-0.199-0.601-0.519 0.027-0.082 0.16-0.281 0.398-0.602 0.215-0.238 0.32-0.492 0.32-0.757 0-0.481-0.105-0.653-0.32-0.52-0.824-0.109-1.476-0.16-1.957-0.16-0.746 0-2.242-0.906-4.48-2.723-2.243-1.785-3.735-3.277-4.481-4.476-0.187 0.023-0.453 0.132-0.801 0.316-0.32 0.16-0.504 0.27-0.558 0.32 0.293 0.266 0.801 0.895 1.519 1.879-0.082 0.055-0.16 0.094-0.242 0.121-0.078 0.055-0.277 0.082-0.598 0.082l-0.601-0.043 0.32 0.442 0.199 0.758c0.457-0.614 1.055-0.559 1.801 0.16 0.668 0.668 1 1.254 1 1.762-0.344 1.171-0.597 2.253-0.758 3.238l0.559-0.399c0.426-0.48 0.641-1.011 0.641-1.601 0-0.477 0.281-0.664 0.839-0.559l0.282 0.481c0.211 0.691 0.316 1.265 0.316 1.718l-0.039 1.36-1.801 0.281 1.684 0.84 0.598 0.402c0.082-0.32 0.105-0.933 0.082-1.843 0.05-0.852 0.343-1.516 0.878-2 0.399 0.187 0.84 0.507 1.321 0.96 0.558 0.508 0.851 0.895 0.879 1.161-0.028 0.132-0.133 0.242-0.321 0.32-0.371 0.187-0.574 0.293-0.597 0.32 1.011-0.265 1.933-0.094 2.758 0.52 0.668 0.558 1 1.117 1 1.679 0 0.801-0.239 1.305-0.719 1.52-0.696 0.348-1.254 1.121-1.68 2.32l0.359 1.602 0.481-1.481c0.105-0.293 0.25-0.546 0.437-0.761 0.215 0 0.403-0.078 0.563-0.239 0.133-0.16 0.199-0.359 0.199-0.601 0.078-0.078 0.387-0.481 0.918-1.199 0.481-0.668 0.949-1.2 1.402-1.602 0.879 0.109 1.399 0.336 1.559 0.68 0.082 0.187 0.094 0.402 0.039 0.644l-0.277 0.199-1.242 0.118 1.363 2.082h0.316c-0.05 0-0.078-0.137-0.078-0.403 0-0.238 0.028-0.371 0.078-0.398 0.242 0.348 0.453 0.734 0.641 1.16 0.16 0.375 0.242 0.586 0.242 0.641 0 0.293-0.043 0.48-0.121 0.558h-1l0.121 0.442 0.16 0.281 0.481-0.082h0.597l0.039-0.52c0.028-0.855 0-1.332-0.078-1.441 0.188-0.027 0.465-0.012 0.84 0.043 0.348 0.105 0.625 0.238 0.84 0.398-0.16-0.375-0.441-0.879-0.84-1.519l0.16 0.039c0.16 0.082 0.414 0.266 0.758 0.559 0.453 0.375 0.774 0.734 0.961 1.082 0.453-0.161 0.719-0.282 0.801-0.36 0.133-0.082 0.199-0.187 0.199-0.32-0.187-0.613-1.332-1.613-3.441-3-2.211-1.387-3.465-2.215-3.758-2.481zm4.359 26.602-0.039 0.117 0.399 0.84c0-0.504-0.024-0.824-0.079-0.957h-0.281zm-5.758-5.281c-0.027 0.48-0.16 1.215-0.402 2.199-0.238 0.828-0.398 1.32-0.48 1.48 0.082 0.161 0.121 0.399 0.121 0.719 0 0.293-0.039 0.52-0.121 0.68v0.082c0.214-0.027 0.652-0.188 1.32-0.481-0.078-1.812-0.117-3.586-0.117-5.32l-0.321 0.641zm-51.48-0.602 0.078-0.039-0.078-0.238-0.242-0.723-0.16-0.117-0.118 1.437 0.52-0.32zm10.039-19.64c-0.133-0.133-0.48-0.2-1.039-0.2l0.359 0.321c0.133 0.109 0.215 0.265 0.239 0.48 0.027 0.215 0.027 0.348 0 0.399-0.774 0.214-1.239 0.441-1.399 0.683 0.16 0.133 0.293 0.25 0.399 0.359 0.187 0.188 0.281 0.426 0.281 0.719-0.586 0.906-0.879 1.653-0.879 2.239 0 0.32 0.078 0.589 0.238 0.8 0.133 0.215 0.199 0.266 0.199 0.16l0.122-0.96 0.121-1 0.48-0.2c0.293 0.082 0.574 0.067 0.84-0.039v-0.238c0-0.242-0.039-0.641-0.121-1.203 0-0.211 0.039-0.547 0.121-1 0.027-0.426 0.039-0.863 0.039-1.32zm6 2.921c0.348 0.188 0.625 0.442 0.84 0.762 1.094 0.906 2.172 1.293 3.238 1.16 0.535-0.054 1.016-0.215 1.442-0.48-0.879-0.535-2.067-1-3.559-1.403-1.176-0.343-1.949-0.519-2.32-0.519l0.359 0.48zm1.602 3.602c0.078 0.371 0.359 0.812 0.839 1.32v-0.043c0-0.211-0.093-0.425-0.281-0.64-0.105-0.133-0.293-0.344-0.558-0.637zm0.679 0.199c0-0.055-0.043-0.094-0.121-0.121-0.105-0.055-0.215-0.078-0.32-0.078l0.441 0.199zm6.16-13.601c0 0.109 0.012 0.175 0.039 0.199 0.051 0.109 0.227 0.16 0.52 0.16 0.375 0 0.602-0.078 0.68-0.238 0.082-0.11 0.187-0.321 0.32-0.641 0-0.375 0.254-0.707 0.762-1 0.476-0.266 1.066-0.402 1.758-0.402l1.199 0.121c0.586 0 1.093 0.293 1.519 0.879 0.457 0.59 0.684 1.308 0.684 2.16 0.133 0.109 0.293 0.242 0.476 0.402 0.137 0.106 0.204 0.321 0.204 0.641 0 0.265-0.094 0.492-0.282 0.68-0.054 0.05-0.093 0.093-0.121 0.117 0.586 0 1.016 0.136 1.281 0.402 0.266 0.266 0.399 0.691 0.399 1.281 0 0.078-0.332 0.746-1 2v0.039l0.519 0.079 0.364-0.239 0.16-0.398 0.359-1.203 0.438-0.879c0-0.586-0.239-1.266-0.719-2.039l-0.922-3.399c0.375-0.269 0.844-0.656 1.402-1.16-0.292 0-0.546-0.082-0.761-0.242-0.211-0.133-0.321-0.293-0.321-0.481-2.773 0.161-4.625 0.469-5.558 0.922-0.746 0.344-2.293 0.516-4.641 0.516-0.238 0-0.812-0.117-1.719-0.356 0-0.457-0.093-0.75-0.281-0.882-1.332-0.801-2.824-0.641-4.48 0.48 1.148 0.188 2.242 0.442 3.281 0.758l-0.078-0.516 0.117-0.121c0.16 0.266 0.602 0.465 1.32 0.598-0.64 0.269-1.039 0.469-1.199 0.601 0.215 0.399 0.508 0.774 0.879 1.122l1.402-0.2c0.106 0.078 0.079 0.332-0.082 0.758l-1.078 1.242 0.039 0.239c0.028 0 0.282-0.149 0.758-0.442 0.535-0.371 0.91-0.785 1.121-1.238l0.762-1.082 0.48 0.762zm14.879-2.879 0.039-0.039 0.243 0.16 0.199-0.762c-2.801-0.824-4.426-1.238-4.879-1.238-0.297 0-0.602 0.094-0.922 0.281-0.32 0.156-0.52 0.266-0.602 0.316l-0.476 0.282c0.933-0.055 1.57 0.054 1.918 0.32 0.238 0.133 0.465 0.387 0.68 0.758l0.402-0.16 0.637 2.281v0.082l0.082-0.363v-0.078c0.054-0.266 0.199-0.696 0.437-1.282 0.098-0.258 0.192-0.484 0.281-0.679 0.129-0.286 0.25-0.496 0.36-0.641 0.375 0.375 0.613 0.574 0.722 0.602 0.133 0.078 0.426 0.132 0.879 0.16zm8.078 31.879v-1.641l-0.117-0.277c-0.453 0.558-0.734 0.957-0.84 1.199l0.36 0.598 0.597 0.121zm-4-1.918-0.199 0.757v0.36l0.922-0.32-0.121-1.399c-0.238 0-0.441 0.199-0.602 0.602zm1.922-3.68 0.121 0.199 0.118-0.359c0.054-0.27 0.082-0.547 0.082-0.84 0-0.297-0.016-0.496-0.039-0.602-0.028-0.027-0.094-0.171-0.204-0.441l-1.16-0.078v0.199l-0.078 0.121c0.641 0.824 1.028 1.426 1.16 1.801zm1.039-3.762 0.039 0.321c0.028-0.055 0.067-0.04 0.122 0.039l0.039 0.242 0.043-0.442-0.243-0.16zm0.082-3.039 0.161 0.36c0 0.371 0.531-0.055 1.597-1.282-0.054-0.425-0.187-0.664-0.398-0.718-0.242 0.16-0.453 0.332-0.641 0.519-0.293 0.375-0.535 0.746-0.719 1.121zm8.039 1.238c0.028 0.082 0.082 0.161 0.161 0.243 0.082 0.078 0.105 0.05 0.082-0.082-0.11-0.133-0.188-0.188-0.243-0.161zm-2.402-1.718 0.602 0.64 0.082 0.2c-0.215-1.707-0.789-2.68-1.723-2.922-0.586-0.133-1.144-0.012-1.68 0.363 0.746 0 1.387 0.172 1.922 0.519 0.531 0.321 0.797 0.719 0.797 1.2zm-1.84 6.64c0 0.399 0.149 0.973 0.442 1.719l0.242 0.441c0.156-0.882 0.199-1.496 0.117-1.839-0.051-0.188-0.184-0.387-0.398-0.602-0.266-0.293-0.403-0.199-0.403 0.281zm-17.199 1.239c0-1.493-0.227-2.028-0.68-1.598-0.16 0.238-0.414 0.906-0.757 2 0 0.023 0.16 0.012 0.476-0.043 0.348-0.051 0.617-0.117 0.801-0.199l0.121-0.078 0.039-0.082zm9.441-25.36 0.481 0.399h-0.84l0.039-0.278c0.055-0.16 0.16-0.199 0.32-0.121zm7.801 4.442c0.051 0.027 0.094 0.039 0.117 0.039 0.297 0 0.508 0.039 0.641 0.121 0.082 0.023 0.199 0.094 0.359 0.199v0.918l-0.117 0.363c-1.093-0.347-1.922-0.777-2.48-1.281l-0.321-0.68c1.012 0.16 1.614 0.266 1.801 0.321zm1.598 2.64 0.121-0.203c0.105-0.16 0.215-0.226 0.32-0.199 0.188 0.16 0.293 0.332 0.321 0.519l-0.762-0.117zm-38.039 19.317v-0.039l-0.121-0.079c-0.321-0.402-0.864-1.16-1.641-2.281-0.344 0.399-0.504 1.254-0.476 2.559l2.519 0.242-0.281-0.402zm4.922-0.68 1.879-0.117c-0.028-0.43-0.133-0.762-0.321-1-0.187-0.242-0.414-0.363-0.679-0.363-0.266 0.027-0.481 0.187-0.641 0.48-0.188 0.32-0.266 0.656-0.238 1zm-18.403-10.238 0.922 0.758 0.321 0.121c-0.11-1.067-0.188-1.614-0.243-1.641l-0.718 0.043c-0.082 0.078-0.149 0.227-0.2 0.437l-0.082 0.282zm5.68-10.641c0.293-0.586 0.867-1.226 1.723-1.918 0.933-0.75 1.73-1.121 2.398-1.121 0.774 0.348 1.16 0.934 1.16 1.762 0 0.293-0.105 0.679-0.32 1.16-0.215 0.426-0.348 0.691-0.398 0.797 0.718 0.215 1.425 0.308 2.117 0.281 0.187-0.027 0.386-0.039 0.601-0.039 0.293 0.508 0.465 0.906 0.52 1.199l0.16-0.801c-0.586-0.906-1.145-1.574-1.68-2-0.187-0.16-0.281-0.453-0.281-0.879 0-1.574 0.52-2.359 1.563-2.359 0.265 0 0.437 0.039 0.519 0.117l0.078 0.16 0.082 1.122 0.078 0.117c0-0.614 0.266-1.145 0.801-1.598 0.508-0.426 1.133-0.641 1.879-0.641l1.242-0.16c0.133-0.105 0.199-0.187 0.199-0.238-0.535-0.242-1.082-0.441-1.64-0.602-0.215 0.133-0.813 0.399-1.801 0.801-0.238-0.16-0.504-0.242-0.801-0.242 0.028 0.055 0.055 0.121 0.082 0.203 0.106 0.344 0.332 0.547 0.68 0.598l-0.398 0.359c-0.161-0.105-0.414-0.371-0.762-0.797-0.668 0-2.668 0.172-6 0.516-3.305 0.375-4.961 0.59-4.961 0.644 0.187 0.106 0.266 0.172 0.242 0.2-0.027 0.023-0.547 0.05-1.562 0.078l-2-0.36c-0.454-0.132-0.786-0.117-1 0.04l-0.079 0.082c-0.265 0.347-0.214 0.464 0.161 0.359 0.425-0.106 0.734-0.16 0.918-0.16l0.121 1.16-0.481-0.039c-0.586-0.106-0.961-0.266-1.121-0.481-0.078-0.105-0.09-0.214-0.039-0.32-1.598-0.133-2.414-0.199-2.437-0.199-0.457 0.105-0.801 0.226-1.043 0.359l1 0.16-0.52 0.922c0.32-0.136 0.707-0.07 1.16 0.199l-0.238 0.481 0.277-0.043c0.297-0.105 0.508-0.465 0.641-1.078l3.121 0.281c0 0.133-0.039 0.277-0.121 0.438-0.184 0.242-0.453 0.375-0.801 0.402 0.375 0 1.188 0.184 2.442 0.559 0.027-0.829 0.292-1.348 0.8-1.559 0.321-0.16 1.106-0.242 2.36-0.242l1 0.039 0.359 2.281zm14.801 0.359c-0.106-0.027-0.106-0.171 0-0.437 0.027-0.082 0.121-0.375 0.281-0.883l-0.601 0.442-0.481 0.48 0.762 0.398h0.039z" inkscape:connector-curvature="0"/>
      <path id="path16" style="fill-rule:evenodd;fill:#6e5438" d="m64.68 16.92 0.359-0.121c-0.184-0.348-0.504-0.707-0.961-1.082-0.344-0.293-0.598-0.477-0.758-0.559l-0.16-0.039c0.402 0.64 0.68 1.144 0.84 1.519l0.082 0.161 0.598 0.121zm1.601 0.16-0.043-0.121-0.84 0.16 0.282-0.039c0.242-0.028 0.441-0.028 0.601 0zm-13.922 7.398c0.161-0.636 0.028-0.953-0.398-0.961 0.238-0.004 0.371-0.164 0.398-0.48 0.133-0.774 0.215-1.184 0.243-1.238l-0.161-0.36-1.921-0.879h-0.122c0.27-0.269 1.094-0.64 2.481-1.121 1.176-0.402 1.762-0.812 1.762-1.242 0-0.238-0.094-0.547-0.282-0.918-0.214-0.402-0.32-0.719-0.32-0.961 1.121-2.586 1.68-3.988 1.68-4.199-0.211-0.668-1.52-1.242-3.918-1.719 0.133 0.317 0.226 0.68 0.277 1.078l-0.078 0.442c-0.055 0-0.172 0.132-0.359 0.398l-0.121-0.758-0.598-0.402c-0.43 0.266-0.777 0.601-1.043 1-0.184 0.293-0.277 0.535-0.277 0.719 0.105 0.082 0.183 0.175 0.238 0.281l0.121 0.121 0.437 0.438c0.27 0.32 0.403 0.507 0.403 0.562-0.133 0.852-0.215 1.426-0.242 1.719-0.028 0.48 0.16 1.469 0.562 2.961l-0.68 0.121c-0.375-0.242-0.8-0.707-1.281-1.403-0.375-0.558-0.801-0.906-1.281-1.039 0.668-0.027 1.094-0.16 1.281-0.398 0.215-0.27 0.32-0.828 0.32-1.68 0-0.429-0.187-0.773-0.558-1.043-0.641-0.398-1.27-0.824-1.883-1.277 0.055-0.188 0.266-0.535 0.641-1.043 0.293-0.453 0.441-0.707 0.441-0.758 0-0.082-0.32-0.64-0.961-1.68 0.695-1.335 1.039-2.093 1.039-2.281 0-0.48-0.054-1.054-0.16-1.719l-1.801 0.04-0.039-1.68-0.32-0.442 0.601 0.04c0.321 0 0.52-0.024 0.598-0.079 0.082-0.027 0.16-0.066 0.242-0.121-0.718-0.984-1.226-1.613-1.519-1.879v0.68l-0.199 0.762-0.243-0.16-0.039 0.039v0.039l-0.16 0.16c-0.32 0.293-0.586 0.586-0.801 0.879 0.563-0.051 1 0.027 1.321 0.242l-0.121-0.039-1.84 0.199c0.136 0.692 0.359 1.16 0.679 1.399l0.204 0.039-0.282 0.121 0.078-0.16-0.199 0.039c-0.133-0.051-0.426-0.051-0.879 0-0.398 0.136-0.625 0.215-0.679 0.242 0.504 0.105 1.011 0.293 1.519 0.558 0.133-0.132 0.281-0.199 0.442-0.199l-0.161 1.199c0.184 0.348 0.371 0.575 0.559 0.684 0.188 0.133 0.305 0.266 0.359 0.398l0.961-1.042c0 0.242-0.066 0.867-0.199 1.882-0.16 0.879-0.215 1.465-0.16 1.762l-0.359 0.078-0.243 0.36c0-0.508-0.187-0.95-0.558-1.321-0.426-0.32-0.906-0.48-1.442-0.48 0 0.215-0.16 0.492-0.48 0.84l-0.16 0.199-2.797 1.043-0.16 0.398c0.05 0.16 0.05 0.36 0 0.602v-0.242c-0.055-0.161-0.176-0.2-0.364-0.121l-0.519-0.079c-0.238 0.215-0.465 0.536-0.68 0.961-0.238 0.453-0.371 0.801-0.398 1.039 0-0.375-0.082-1.48-0.242-3.32 0-0.32 0.027-0.586 0.082-0.801 0.054-0.133 0.171-0.453 0.359-0.957l0.16-0.64h0.039l0.121-0.121c0.188-0.188 0.282-0.415 0.282-0.68 0-0.32-0.067-0.535-0.204-0.641-0.183-0.16-0.343-0.293-0.476-0.398-0.137-0.215-0.375-0.496-0.723-0.84-0.398-0.375-0.652-0.68-0.758-0.922-0.586 0.055-1.281 0.414-2.082 1.082-0.961 0.774-1.437 1.586-1.437 2.438 0 0.027 0.156 0.187 0.476 0.48 0.321 0.348 0.481 0.816 0.481 1.402 0 0.293-0.012 0.493-0.039 0.598-0.051 0.027-0.078 0.055-0.078 0.082-0.321 0-0.762 0.051-1.321 0.16-0.8 0.215-1.429 0.508-1.882 0.879 0.136-0.691 0.082-1.199-0.161-1.519-0.16-0.161-0.304-0.239-0.437-0.239-0.668 0.024-1.336 0.321-2 0.879-0.613 0.641-1.016 1.067-1.199 1.282l-0.282 0.32c0 0.773 0.145 1.426 0.442 1.957 0.183 0.402 0.41 0.64 0.68 0.723 0.132 0.054 0.253 0.093 0.359 0.121 0.531 0 0.984 0.132 1.359 0.398 0.348 0.266 0.52 0.574 0.52 0.918l0.238 0.684c-0.156-0.43-0.383-0.563-0.68-0.403h-0.078c-0.933-0.32-1.535-0.48-1.8-0.48-0.426 0.265-0.907 0.429-1.442 0.48-1.066 0.133-2.144-0.254-3.238-1.16 0.16 0.32 0.281 0.695 0.359 1.121 0.481 0 0.879 0.106 1.199 0.321 0.321 0.238 0.481 0.519 0.481 0.839 0 0.215-0.051 0.387-0.16 0.52-0.106 0.133-0.239 0.199-0.399 0.199l-0.039 0.039-0.441-0.199h-0.238l-0.403-1.121c-0.078 0.48-0.238 0.918-0.48 1.32-0.344 0.613-0.774 0.918-1.278 0.918-0.453 0-0.855-0.238-1.203-0.719-0.371-0.48-0.558-1.054-0.558-1.718 0-1.52 0.773-2.282 2.32-2.282l-0.359-0.48-1.039-0.559 0.476-0.281c-0.078-0.773-0.277-1.254-0.598-1.441-1.253 0-2.32 0.359-3.199 1.082-0.054 0.027-0.109 0.05-0.16 0.078 0.348 0.43 0.547 0.734 0.598 0.922 0.054 0.265-0.024 0.718-0.239 1.359l-0.96-1.601c-0.348 0.457-0.532 0.96-0.559 1.523v0.238c-0.266 0.106-0.547 0.121-0.84 0.039l-0.16 0.082c0.664 0.321 1.32 0.571 1.961 0.758 0.344 0.242 0.519 0.934 0.519 2.082 0 0.426-0.027 0.653-0.082 0.68-0.027 0.027-0.238 0.078-0.64 0.16-0.824-0.082-1.278-0.133-1.36-0.16-0.265-0.106-0.519-0.508-0.757-1.199l-0.204-0.243c0 0.106-0.066 0.055-0.199-0.16-0.16-0.211-0.238-0.48-0.238-0.8 0-0.586 0.293-1.333 0.879-2.239 0-0.293-0.094-0.535-0.281-0.719-0.106-0.109-0.239-0.226-0.399-0.359 0.16-0.242 0.625-0.469 1.399-0.683l-0.239-0.879-0.359-0.321c0.453-0.183 0.851-0.359 1.199-0.519 0.746-0.371 1.145-0.719 1.199-1.039 0-0.082-0.011-0.16-0.039-0.242-0.082-0.266-0.32-0.504-0.718-0.719-0.11-0.051-0.204-0.106-0.282-0.16-0.695-0.293-1.535-0.465-2.519-0.52 0.027 0.082 0.039 0.16 0.039 0.242 0 0.16-0.067 0.305-0.199 0.442-0.106 0.105-0.254 0.16-0.442 0.16-0.16 0-0.304-0.055-0.437-0.16-0.11-0.137-0.16-0.282-0.16-0.442 0-0.082 0.011-0.176 0.039-0.281l-0.602 0.039c-0.691-0.879-1.664-1.316-2.918-1.316-0.348 0-0.562 0.066-0.641 0.199-0.027 0.051-0.054 0.293-0.082 0.719 0.028 0.347 0.188 1.027 0.481 2.039 0.266 0.933 0.402 1.453 0.402 1.558 0 0.535-0.136 1.137-0.402 1.801v-0.359c-0.051 0.133-0.067-0.028-0.039-0.481 0-0.242 0.015-0.48 0.039-0.719 0-0.32-0.145-0.601-0.438-0.843-0.347-0.211-0.746-0.317-1.203-0.317-0.398 0.266-0.746 0.586-1.039 0.961-0.238 0.317-0.359 0.543-0.359 0.68 0 0.719 0.082 1.68 0.238 2.879l-0.398-0.641c-0.668-0.535-1.719-0.851-3.16-0.961l0.402-0.316c0.398-0.215 0.746-0.336 1.039-0.363-0.481-0.344-0.723-0.571-0.723-0.68-0.957-0.106-1.664-0.078-2.117 0.082l0.039 0.078c0.481-0.133 0.774-0.144 0.879-0.039 0.188 0.188 0.281 1.414 0.281 3.68 0 0.238-0.121 0.679-0.359 1.32-0.082 0.266-0.16 0.504-0.242 0.719-0.078 0.293-0.117 0.519-0.117 0.679 0 0.348 0.078 0.668 0.238 0.961 0.027 0.055 0.066 0.106 0.121 0.161 0.184 0.238 0.559 0.535 1.117 0.878-0.504 0.133-0.84 0.243-1 0.321-0.078 0.054-0.117 0.105-0.117 0.16-0.242 0.266-0.359 0.652-0.359 1.16 0 0.32 0.132 0.625 0.398 0.922 0.293 0.32 0.746 0.613 1.359 0.879-0.558 0.16-0.984 0.348-1.281 0.558-0.078 0.082-0.144 0.133-0.199 0.161 0.055 0.187 0.121 0.347 0.199 0.48 0.641 1.359 0.977 2.215 1 2.559-0.105 0.082-0.156 0.175-0.156 0.281 0 0.105 0.223 0.586 0.68 1.441 0.503 0.961 0.812 1.625 0.918 2-0.028 0.051-0.188-0.027-0.481-0.242-0.051 0.027-0.094 0.11-0.117 0.242 0.238 0.774 0.863 1.278 1.879 1.52 1.812 0.348 3.586 0.734 5.32 1.16 1.039-0.266 1.824-0.309 2.359-0.121 0.508 0.215 0.825 0.68 0.961 1.402 0.399-0.215 0.786-0.468 1.161-0.761-1.227-0.481-1.883-0.774-1.961-0.879-0.082-0.082-0.039-0.321 0.121-0.723 0-0.293-0.016-0.414-0.043-0.359-0.106 0.105-0.172 0.16-0.199 0.16-0.852 0.426-1.586 0.64-2.2 0.64-0.613 0-1.199-0.16-1.761-0.48-1.465-0.774-2.664-1.375-3.598-1.801l-0.52 0.32c-0.296-0.238-0.441-0.746-0.441-1.519l-0.078-3.68c0.238 0.375 0.426 1.028 0.558 1.961 0.825 0.664 1.813 1.188 2.961 1.559 1.547 0.535 2.493 0.879 2.84 1.039l0.239-0.278c-0.133-0.027-0.172-0.199-0.122-0.519 0.028-0.348 0.122-0.707 0.282-1.082l0.281-0.598 0.16-0.801c0.32 0.372 0.559 0.719 0.719 1.04l-0.078-0.719c0.558 0.105 1.812 0.586 3.758 1.437l0.441-0.359c0.238-0.641 0.398-1.121 0.48-1.441 0.133-0.665 0.2-1.571 0.2-2.719-0.215-0.559-0.602-1.055-1.161-1.481-0.425-0.347-0.718-0.519-0.878-0.519-0.321 0-0.575 0.039-0.762 0.121-0.266 0.187-0.52 0.375-0.762 0.558-0.023-0.878-0.371-1.64-1.039-2.277-0.371-0.348-0.785-0.629-1.238-0.84-1.016 0.211-1.535 0.305-1.563 0.278-0.078-0.079-0.304-0.371-0.679-0.879l0.679 0.199c0 0.082 0.254 0.148 0.762 0.199 0.453 0.027 0.922 0.027 1.398 0l0.403-0.117 0.597-0.402c0.536-0.344 0.922-0.481 1.161-0.399 0.269 0.426 0.402 0.852 0.402 1.278l-0.039 1.042c0.719-0.109 1.476 0.051 2.277 0.481 0.746 0.344 1.281 0.73 1.602 1.16 0.293 2.16 0.691 3.598 1.199 4.317 0.293 0.48 0.801 0.96 1.52 1.441 0.773-1.652 1.535-2.801 2.281-3.441l0.121-0.118c0.613 0.211 1.211 0.571 1.797 1.078 0.48 0.454 1.109 1.149 1.883 2.082 0.05-0.265 0.16-1.015 0.32-2.242 0.183-1.359 0.277-2.199 0.277-2.519 0-0.215-0.094-0.547-0.277-1-0.215-0.586-0.453-1.039-0.723-1.36 0.426 0.215 0.707 0.387 0.84 0.52 0.348 0.348 0.586 0.879 0.723 1.601 0 1.387 0.41 2.575 1.238 3.559 0.773 0.988 1.734 1.481 2.879 1.481 0.668-0.961 1-1.559 1-1.801 0-1.199-0.305-2.281-0.918-3.239-0.828-1.386-2.121-2.015-3.883-1.882l0.32-0.438c0.43-0.375 0.883-0.601 1.364-0.68-0.617 0.079-1.215 0-1.801-0.242-0.641-0.293-0.961-0.664-0.961-1.117 0-0.375 0.16-0.656 0.48-0.84 0.375-0.215 0.653-0.574 0.84-1.082 0.215 0.508 0.465 0.989 0.758 1.442 0.59 0.906 1.32 1.504 2.203 1.797l-0.679 0.042c0.023 0 0.238 0.106 0.636 0.321 0.348 0.16 0.668 0.238 0.961 0.238 0.321 0 0.547-0.039 0.68-0.121 0.027-0.051 0.043-0.105 0.043-0.16l0.156-0.84c0-0.027-0.023-0.227-0.078-0.598-0.105-0.347-0.16-0.656-0.16-0.922 0-0.48 0.015-0.707 0.039-0.679l-0.117-0.481-0.121-0.48c0.078-0.133 0.304-0.531 0.679-1.199 0.293-0.692 0.465-1.094 0.52-1.2l0.238 1.079c0-0.426 0.055-1.411 0.16-2.958l0.203-0.882v-0.078l0.161-0.243c0.132-1.437 0.265-2.277 0.398-2.519 0.105 1.254 0.039 2.68-0.199 4.281-0.375 2.16-0.696 4.027-0.961 5.602l0.121-1.961-0.563 0.918c0.188 1.523 0.215 2.734 0.082 3.64l-0.402 1.723 0.883 0.879c0.426 0.64 0.641 1.348 0.641 2.121l-0.122 1.039c-0.027 1.094-0.175 1.773-0.441 2.039 0.906-0.348 1.52-0.519 1.84-0.519-0.078-1.2 0.043-2.493 0.359-3.879 0.297-1.336 0.707-2.137 1.242-2.403 0.508-0.265 0.973 0.082 1.399 1.043 0.426 0.985 0.68 2.532 0.762 4.637l0.359 0.121c-0.027-0.078-0.039-0.226-0.039-0.441 0-0.477 0.094-0.692 0.277-0.637l1.121 1.477-0.437-0.2 0.398 0.68 0.321 0.281c0.214 0.133 0.332 0.106 0.359-0.078-0.133-0.402-0.387-0.84-0.762-1.32l0.043-0.403c0.293 0 1 0.161 2.117 0.481l1.602 1.16c0.293-0.48 0.465-1.105 0.52-1.879 0.027-0.586-0.012-1.695-0.122-3.32 0.215 0.375 0.375 0.785 0.481 1.238 0.187 0.828 0.226 2.453 0.121 4.883l0.52 0.238-1.161-0.441h-0.039c0.586 0.773 0.918 1.226 1 1.363 0.481 0.692 0.719 1.238 0.719 1.637 0 0.055-0.332 0.496-1 1.32l0.801-0.16c0.773-0.426 1.441-0.637 2-0.637 0.375 0 1.094 0.383 2.16 1.157 1.121 0.8 1.84 1.507 2.16 2.121-0.348 0.562-0.613 0.855-0.801 0.879-0.425 0-0.972 0.093-1.64 0.281l0.359-0.039c1.734-0.242 2.922-0.321 3.563-0.242 0.664 0.082 1.171 0.402 1.519 0.96-0.187 0.133-0.574 0.321-1.16 0.563-0.586 0.293-0.945 0.453-1.078 0.477 0.211-0.024 0.531-0.024 0.957 0l0.562 0.121c-0.269 0-0.429 0.015-0.48 0.039-0.133 0.054-0.199 0.242-0.199 0.562 0 0.293 0.066 0.504 0.199 0.641 0.051 0.078 0.16 0.183 0.32 0.32 1.227-0.242 3.266-0.496 6.117-0.762-0.878-0.214-1.586-0.535-2.117-0.961-0.508-0.398-1.082-0.664-1.722-0.8 0.187-0.559 0.293-1.012 0.32-1.36-0.215-0.16-0.68-0.254-1.399-0.277-0.613 0-0.921-0.043-0.921-0.121v-0.082l-0.52-0.797c-0.133 0.023-0.371 0.172-0.719 0.437-0.132-0.453-0.441-1-0.922-1.64-0.398-0.559-0.73-0.957-1-1.199l-0.597-0.121-0.36-0.598-0.121-0.16-0.761-0.282-1.438 0.04-0.922 0.32c-0.133-0.024-0.293 0.015-0.48 0.121-0.16 0.105-0.266 0.16-0.321 0.16l0.801-0.641 0.199-0.757v-0.082c0.055-0.746 0.364-1.454 0.922-2.121 0.641-0.747 0.973-1.239 1-1.477-0.132-0.375-0.519-0.977-1.16-1.801l0.078-0.121c-0.316 0.215-0.625 0.492-0.918 0.84l-0.281-1.68c0.133 0 0.402-0.066 0.801-0.199 0.398-0.105 0.734-0.16 1-0.16 0.293 0 0.574 0.066 0.84 0.199 0.16 0.106 0.375 0.254 0.64 0.441l0.078-0.96-0.039-0.321zm6.481-13.84c0.133 0 0.254-0.054 0.359-0.16 0.055-0.078 0.067-0.172 0.039-0.281-0.023-0.078-0.09-0.16-0.199-0.238-0.133-0.082-0.25-0.11-0.359-0.082l0.16 0.761zm0.601 26.079c-0.082-0.747-0.054-1.68 0.079-2.797v-0.801l-0.079-0.16c-0.109 0.425-0.175 1.011-0.203 1.758-0.023 0.855-0.133 1.496-0.316 1.921l0.519 0.079zm-1.601 2.683c0.48-0.109 0.746-0.137 0.801-0.082-0.348 0.215-0.852 0.359-1.52 0.441l0.719-0.359zm1.558 1.277c-0.16 0-0.304-0.05-0.437-0.16-0.109-0.105-0.16-0.238-0.16-0.398s0.051-0.309 0.16-0.442c0.133-0.078 0.277-0.117 0.437-0.117 0.161 0 0.309 0.039 0.442 0.117 0.105 0.133 0.16 0.282 0.16 0.442s-0.055 0.293-0.16 0.398c-0.133 0.11-0.281 0.16-0.442 0.16zm-25.757-23.64-0.082 0.043c0.05-0.028 0.011-0.078-0.118-0.16l0.2 0.117zm-10.039 1.203c0.265 0.293 0.453 0.504 0.558 0.637 0.188 0.215 0.281 0.429 0.281 0.64v0.043c-0.48-0.508-0.761-0.949-0.839-1.32zm27.679 22.078c1.145 0.242 2.024 0.242 2.641 0 0.316-0.105 0.625-0.305 0.918-0.601-0.133 0.054-0.652 0.16-1.559 0.32-0.988 0.187-1.656 0.281-2 0.281zm-3.519 1.52 2.437-0.2c0.106-1.359-0.758-2.453-2.597-3.281l0.398-0.078 0.762 0.039c-2-0.691-3.028-1.055-3.082-1.078l-1.16 0.637c0-0.266-0.133-0.746-0.399-1.438-0.133-0.375-0.016-0.562 0.359-0.562-0.878-0.477-1.668-0.719-2.359-0.719l-1 0.121 0.199 0.078c1.84 0.668 2.801 1.508 2.879 2.52-0.398 0.136-0.734 0.347-1 0.64-0.187 0.242-0.453 0.36-0.801 0.36 2.215 0.269 3.68 0.496 4.403 0.683 1.066 0.211 1.801 0.504 2.199 0.879-0.027 0.399-0.441 0.867-1.238 1.399zm-2.641-5.918c0.348 0.293 0.586 0.664 0.719 1.117 0.082-0.16 0.121-0.531 0.121-1.117h-0.84zm-2.402 5.839c0.773-0.082 1.496-0.109 2.16-0.082 0.613-0.21 0.988-0.371 1.121-0.48l-0.039-0.078-0.082-0.082c-0.984 0-1.707-0.117-2.16-0.36-0.453-0.238-0.692-0.359-0.719-0.359h-0.398l0.078 0.16c0.16 0.133 0.254 0.254 0.281 0.36-0.668-0.321-1.293-0.454-1.883-0.399-0.773 0.106-1.344 0.492-1.719 1.16 0.266 0.211 0.629 0.399 1.082 0.559 0.133-0.133 0.266-0.293 0.399-0.481 0.105-0.132 0.32-0.199 0.64-0.199 0.293 0 0.532 0.028 0.719 0.082 0.106 0.024 0.281 0.09 0.52 0.199zm-8.84-0.281c-0.453-0.293-1.32-0.933-2.598-1.918-0.293-0.215-0.64-0.32-1.043-0.32 0.188 0.398 0.231 0.68 0.121 0.84h0.2c0.375 0 0.746 0.16 1.121 0.48 0.242 0.211 0.601 0.637 1.082 1.278 0.238-0.106 0.613-0.2 1.117-0.278v-0.082zm5.762-1.961c-0.266-0.05-0.536-0.039-0.801 0.043 0.215 0.078 0.238 0.184 0.082 0.317 0.586 0.027 0.973 0.015 1.156-0.039 0-0.161-0.144-0.266-0.437-0.321zm-11.442 0.68-1.199 0.48c0.988 0.293 2.039 0.536 3.16 0.723v0.199c0.453 0.239 0.813 0.453 1.078 0.641-0.371-0.934-0.879-1.547-1.519-1.84 0-0.027 0.015-0.055 0.043-0.082h-0.082c-0.852-0.133-1.348-0.172-1.481-0.121zm-3.597 2.121v0.121h2.957c-1.704-0.695-2.719-0.961-3.039-0.801l-0.122 0.039c0 0.106 0.067 0.321 0.204 0.641zm27.277-1.238c0-0.16-0.051-0.309-0.16-0.442-0.078-0.132-0.184-0.199-0.321-0.199 0.188 0.188 0.348 0.399 0.481 0.641zm2.84-8.602v-0.441c0-0.32-0.039-0.559-0.117-0.719-0.055 0-0.122 0.016-0.204 0.039l-0.078 0.121 0.399 1zm2.402-3.121 0.078 0.602c0.106-0.614 0.133-1.149 0.082-1.602l-0.082 0.043-0.121 0.758 0.043 0.199zm-1.16-9.617v0.019l-0.039 0.04c-0.027 0.05-0.043 0.214-0.043 0.48v0.078c0 0.082 0.148 0.375 0.441 0.883 0.293 0.531 0.575 0.973 0.84 1.32-0.055-0.32-0.187-0.761-0.398-1.32-0.242-0.668-0.496-1.188-0.762-1.563-0.023 0.024-0.035 0.043-0.039 0.063zm0.598 4.66c0 0.371 0.043 0.692 0.121 0.957 0.054 0.293 0.148 0.442 0.281 0.442 0.105 0 0.199-0.149 0.277-0.442 0.082-0.265 0.121-0.586 0.121-0.957 0-0.402-0.039-0.734-0.121-1-0.078-0.269-0.172-0.402-0.277-0.402-0.133 0-0.227 0.133-0.281 0.402-0.078 0.266-0.121 0.598-0.121 1zm6.082 6.918 0.082 0.399c0.078-0.157 0.105-0.344 0.078-0.559-0.028-0.16-0.067-0.254-0.121-0.281l-0.039 0.441zm-0.2-2.32c0.239 0 0.454-0.106 0.637-0.321 0.137-0.21 0.203-0.464 0.203-0.757s-0.066-0.547-0.203-0.762c-0.183-0.215-0.398-0.32-0.637-0.32-0.242 0-0.429 0.105-0.562 0.32-0.156 0.215-0.238 0.469-0.238 0.762 0 0.238 0.05 0.453 0.16 0.64h0.121c0.156 0 0.305 0.09 0.437 0.278 0.028 0.054 0.055 0.105 0.082 0.16zm-25.519 8.719c-0.563-0.051-0.922-0.067-1.082-0.04h-0.481l0.442-0.277 0.801-0.082c-0.348-0.719-0.723-1.199-1.122-1.441-0.292 0-0.535 0.043-0.718 0.121-0.242 0.16-0.469 0.308-0.684 0.441l0.121 0.16c0.133 0.16 0.321 0.371 0.563 0.641l-0.203 0.117c-2.399 0.27-3.774 0.496-4.118 0.68 0.825 0.16 1.774 0.297 2.84 0.402 0.504-0.133 0.985-0.199 1.438-0.199 0.426-0.027 0.734 0.039 0.922 0.199l-2 0.039c0.371 0.106 1.171 0.149 2.398 0.121 1.066-0.027 1.856-0.082 2.359-0.16l-1.476-0.722zm2.078-8.797-0.121 0.078c0.266 0.426 0.84 1.015 1.723 1.761 0.851 0.747 1.304 1.184 1.359 1.321 0.32-0.27 0.719-0.52 1.199-0.762-0.265-0.238-1.094-0.601-2.48-1.078-1.094-0.375-1.653-0.816-1.68-1.32zm-3.32-4.321c-0.719-1.441-1.078-2.242-1.078-2.402 0-0.051 0.332-0.973 1-2.758l0.636 1v4.719l-0.558-0.559zm6.242 3.879h-0.043l0.043 0.039v-0.039zm0.117-3.48c-0.906-0.586-1.547-1.172-1.918-1.758-0.242-0.563-0.414-0.949-0.519-1.16l0.476-0.082c0.563 0.426 1.067 0.961 1.524 1.601l0.32 0.68 0.117 0.719zm3.121-5.52c-0.027 0.16-0.215 0.332-0.558 0.52l0.519-0.481-0.84 0.082c0-0.828-0.121-1.386-0.359-1.679-0.723 0.105-1.32 0.023-1.801-0.243-0.48-0.265-0.762-0.652-0.84-1.16 0.211 0.028 0.481 0.133 0.797 0.321l1.121 0.082c0.508-0.004 0.949-0.243 1.321-0.723 0.402-0.426 0.601-0.957 0.601-1.598 0.453 0.586 0.68 1.211 0.68 1.879 0 0.321-0.067 0.801-0.199 1.442-0.11 0.586-0.227 1.039-0.364 1.359l-0.078 0.199zm-4.281 1.922c0 0.051-0.024 0.106-0.078 0.16-0.082 0.024-0.188 0.039-0.321 0.039-0.105 0-0.199-0.015-0.281-0.039-0.054-0.054-0.078-0.109-0.078-0.16 0-0.055 0.024-0.109 0.078-0.16 0.082-0.027 0.176-0.043 0.281-0.043 0.133 0 0.239 0.016 0.321 0.043 0.054 0.051 0.078 0.105 0.078 0.16zm0.641-0.082c-0.399-0.719-0.532-1.215-0.399-1.48 0.184 0 0.348 0.093 0.481 0.281 0.132 0.16 0.199 0.359 0.199 0.598l-0.281 0.601zm0.878-1.758c-0.851-0.722-1.453-1.16-1.796-1.32-0.028 0-0.243-0.043-0.641-0.121 0.105-0.16 0.184-0.254 0.238-0.281 0.133-0.106 0.348-0.161 0.641-0.161 0.453 0 0.719 0.04 0.801 0.122 0.078 0.027 0.265 0.238 0.558 0.64l0.121 0.481 0.078 0.64zm-0.117-3.523c-0.347-0.133-0.586-0.32-0.722-0.559h0.082c0.132 0 0.238 0.028 0.32 0.082l0.32 0.477zm-0.121-1.918c0-0.774 0.508-1.172 1.52-1.199 0.695-0.028 1.547 0.105 2.558 0.398 0 0.348-0.023 0.641-0.078 0.883l-0.121 0.277c-0.824-0.238-1.453-0.359-1.879-0.359-0.426 0.082-0.988 0.265-1.68 0.558-0.054 0.028-0.105 0.028-0.16 0-0.105-0.078-0.16-0.265-0.16-0.558zm-2.082 7c0 0.133-0.117 0.254-0.359 0.359-0.239 0.106-0.531 0.16-0.879 0.16s-0.641-0.054-0.879-0.16c-0.242-0.105-0.359-0.226-0.359-0.359 0-0.16 0.117-0.293 0.359-0.402 0.238-0.106 0.531-0.157 0.879-0.157s0.64 0.051 0.879 0.157c0.242 0.109 0.359 0.242 0.359 0.402zm-6.519-4.801c-0.559-0.508-1.012-1.121-1.36-1.84-0.398-0.773-0.613-1.172-0.64-1.199 0.187 0.16 0.562 0.68 1.121 1.559 0.558 0.879 0.855 1.375 0.879 1.48zm4.203-0.879c0.105 0.106 0.16 0.238 0.16 0.399 0 0.187-0.055 0.32-0.16 0.402-0.11 0.133-0.254 0.199-0.442 0.199-0.16 0-0.293-0.066-0.398-0.199-0.11-0.082-0.16-0.215-0.16-0.402 0-0.161 0.05-0.293 0.16-0.399 0.105-0.105 0.238-0.16 0.398-0.16 0.188 0 0.332 0.055 0.442 0.16zm2.316-3.32c1.203-0.215 2.188-0.172 2.961 0.121-0.504 0.184-1.598 0.371-3.277 0.559l0.316-0.68zm-7.598 0.16c-0.347 0-0.625-0.027-0.839-0.082-0.243-0.078-0.36-0.172-0.36-0.281 0-0.078 0.117-0.157 0.36-0.239 0.214-0.078 0.492-0.117 0.839-0.117 0.321 0 0.598 0.039 0.84 0.117 0.215 0.082 0.321 0.161 0.321 0.239 0 0.109-0.106 0.203-0.321 0.281-0.242 0.055-0.519 0.082-0.84 0.082zm1.282-0.879c-0.082-0.082-0.121-0.176-0.121-0.281 0-0.133 0.039-0.242 0.121-0.32 0.078-0.055 0.172-0.082 0.277-0.082 0.133 0 0.242 0.027 0.32 0.082 0.082 0.078 0.121 0.187 0.121 0.32 0 0.105-0.039 0.199-0.121 0.281-0.078 0.078-0.187 0.117-0.32 0.117-0.105 0-0.199-0.039-0.277-0.117zm1.437-4.762c-0.187-0.105-0.277-0.226-0.277-0.359s0.09-0.266 0.277-0.402c0.16-0.078 0.375-0.118 0.641-0.118 0.265 0 0.492 0.04 0.68 0.118 0.187 0.136 0.281 0.269 0.281 0.402s-0.094 0.254-0.281 0.359c-0.188 0.133-0.415 0.2-0.68 0.2-0.266 0-0.481-0.067-0.641-0.2zm6.723-0.921c-0.137-0.079-0.227-0.133-0.281-0.157-0.028-0.054-0.039-0.23-0.039-0.523 0-0.477 0.039-0.84 0.117-1.078-0.184-0.215-0.399-0.348-0.641-0.399-0.051 0.024-0.09 0.067-0.117 0.117-0.027 0.082-0.039 0.282-0.039 0.602 0 0.238 0.066 0.52 0.199 0.84 0.184 0.48 0.453 0.68 0.801 0.598zm1.84 6.523 0.16 0.238c-0.137 0.055-0.387-0.027-0.762-0.238l0.199-0.043c0.133-0.023 0.266-0.012 0.403 0.043zm4.718-8.762c-0.16-0.078-0.265-0.039-0.32 0.121l-0.039 0.278h0.84l-0.481-0.399zm13.161 18.52c0.05 0 0.187-0.254 0.398-0.758 0.188-0.508 0.293-0.867 0.32-1.082l-0.597-0.199c-0.082 0.133-0.137 0.199-0.16 0.199l0.039 1.84zm-2.321-4.36 0.078-0.238c0-0.43-0.066-0.695-0.199-0.801-0.027 0.106-0.027 0.321 0 0.641l0.121 0.398zm1.282 2.399c-0.082-0.184-0.215-0.254-0.403-0.199l0.403 0.679v-0.48zm-2.481-4.52-0.199 0.082-0.16 0.118c-0.055 0.082-0.082 0.281-0.082 0.601 0 0.399 0.132 0.719 0.398 0.961 0.27 0.266 0.629 0.387 1.082 0.359-0.453-0.558-0.746-0.972-0.879-1.238-0.082-0.187-0.136-0.48-0.16-0.883zm-4.883-1.84-0.039 1.122c-0.078 0-0.226 0.214-0.437 0.64-0.457-0.347-0.867-0.695-1.242-1.039 0.375-0.457 0.894-0.789 1.558-1l0.16 0.277zm3.043-5.757c-0.187-0.055-0.789-0.161-1.801-0.321l0.321 0.68c0.558 0.508 1.387 0.934 2.48 1.281l0.117-0.359v-0.922c-0.16-0.105-0.277-0.172-0.359-0.199-0.133-0.078-0.344-0.117-0.641-0.117-0.023-0.004-0.066-0.016-0.117-0.043zm1.598 2.64 0.762 0.117c-0.028-0.187-0.133-0.359-0.321-0.519-0.105-0.027-0.215 0.039-0.32 0.199l-0.121 0.203zm-33.117 28.598-0.121-0.121c-0.348 0-0.653 0.055-0.922 0.16l0.16 0.242c0.48-0.055 0.773-0.148 0.883-0.281zm2.758-1.32c-0.215 0.105-0.454 0.16-0.719 0.16-0.293 0-0.535-0.055-0.723-0.16-0.211-0.079-0.316-0.2-0.316-0.36 0-0.133 0.105-0.254 0.316-0.359 0.188-0.082 0.43-0.121 0.723-0.121 0.265 0 0.504 0.039 0.719 0.121 0.187 0.105 0.281 0.226 0.281 0.359 0 0.16-0.094 0.281-0.281 0.36zm-7.68-8-0.238-0.52 0.597-0.078c-0.238-0.055-0.414-0.055-0.519 0-0.055 0.023-0.094 0.012-0.121-0.043l0.043 0.121 0.117 0.441 0.121 0.079zm0 0.039 0.281 0.402c0.504-0.055 1.078 0.121 1.719 0.52 0.746 0.453 1.16 1.011 1.238 1.679-0.637 0.16-1.039 0.254-1.199 0.281-0.16 0.184-0.277 0.454-0.359 0.801 1.812 0.426 2.894 0.719 3.242 0.879 0.426 0.16 0.863 0.371 1.316 0.641 0.242 0.051 0.43 0.117 0.563 0.199 0.16 0.133 0.265 0.266 0.32 0.398 0.16 0.161 0.332 0.309 0.519 0.442l0.84-1.199-2.48-0.121c0.105-0.188 0.238-0.332 0.398-0.442 0.137 0 0.481 0.067 1.043 0.203 0.586 0.157 0.934 0.278 1.039 0.36l0.321-0.36c-1.575 0-2.707-0.281-3.403-0.843-0.664-0.719-1.343-1.278-2.039-1.68 0.641-0.238 1.121-0.52 1.442-0.84-0.719-0.824-1.586-1.266-2.602-1.32-0.906 0.136-1.492 0.215-1.758 0.242h-0.043l-0.277-0.199h-0.039c-0.027 0-0.055-0.016-0.082-0.043zm8.32 7.32c-0.265-0.293-0.652-0.531-1.16-0.719-0.961 0.348-1.934 0.785-2.922 1.321l0.242 0.16c1.227 0.265 2.68 0.238 4.36-0.082-0.215-0.293-0.387-0.52-0.52-0.68zm-11.16 0.801c0.426 0.215 0.961 0.32 1.602 0.32 0.664 0 1.226-0.105 1.679-0.32 0.426-0.215 0.641-0.481 0.641-0.801s-0.215-0.586-0.641-0.797c-0.453-0.215-1.015-0.32-1.679-0.32-0.641 0-1.176 0.105-1.602 0.32-0.453 0.211-0.68 0.477-0.68 0.797s0.227 0.586 0.68 0.801zm2.602-1.121c0.16 0.082 0.238 0.175 0.238 0.281 0 0.133-0.078 0.226-0.238 0.281-0.188 0.078-0.403 0.121-0.641 0.121-0.242 0-0.441-0.043-0.602-0.121-0.16-0.055-0.238-0.148-0.238-0.281 0-0.106 0.078-0.199 0.238-0.281 0.161-0.078 0.36-0.118 0.602-0.118 0.238 0 0.453 0.04 0.641 0.118zm-1.243-1.598c0 0.078 0.067 0.148 0.2 0.199 0.136 0.082 0.281 0.121 0.441 0.121s0.32-0.039 0.48-0.121c0.106-0.051 0.161-0.121 0.161-0.199 0-0.105-0.055-0.199-0.161-0.281-0.16-0.055-0.32-0.078-0.48-0.078s-0.305 0.023-0.441 0.078c-0.133 0.082-0.2 0.176-0.2 0.281zm2.879-12.039v-0.563h0.723v0.563h-0.723zm1.84 0.16c-0.316-0.215-0.476-0.457-0.476-0.723 0-0.238 0.16-0.464 0.476-0.679 0.297-0.188 0.641-0.281 1.043-0.281 0.399 0 0.758 0.093 1.078 0.281 0.293 0.215 0.442 0.441 0.442 0.679 0 0.266-0.149 0.508-0.442 0.723-0.32 0.184-0.679 0.277-1.078 0.277-0.402 0-0.746-0.093-1.043-0.277zm5.481 6.477-0.239-0.039c-0.027 0.054-0.039 0.32-0.039 0.8 0 0.321 0.492 0.801 1.481 1.442l1.199-0.203c-0.32-0.504-0.586-0.813-0.801-0.918-0.746-0.399-1.281-0.762-1.601-1.082zm-3.399-5.52 0.078-0.48c0.055 0.027 0.176 0.066 0.364 0.121 0.16 0.082 0.238 0.265 0.238 0.562 0 0.293-0.028 0.477-0.078 0.559l-0.043 0.039c-0.344-0.238-0.531-0.508-0.559-0.801zm5.32 1.563c-0.214 0-0.386-0.11-0.519-0.321-0.188-0.187-0.281-0.429-0.281-0.722 0-0.266 0.093-0.52 0.281-0.758 0.133-0.188 0.305-0.281 0.519-0.281 0.215 0 0.415 0.093 0.598 0.281 0.137 0.238 0.203 0.492 0.203 0.758 0 0.297-0.066 0.535-0.203 0.722-0.183 0.211-0.383 0.321-0.598 0.321zm-24.441 5.398 0.281-0.078c-0.105-0.082-0.265-0.43-0.48-1.043l0.121 0.883 0.078 0.238zm1.082-5.961c-0.109-0.105-0.16-0.238-0.16-0.398s0.051-0.309 0.16-0.442c0.106-0.078 0.227-0.117 0.359-0.117 0.161 0 0.293 0.039 0.399 0.117 0.109 0.133 0.16 0.282 0.16 0.442s-0.051 0.293-0.16 0.398c-0.106 0.137-0.238 0.203-0.399 0.203-0.132 0-0.253-0.066-0.359-0.203zm0.68-2.437c-0.961 0.824-2.426 1.32-4.403 1.48-0.531 0-0.093-0.215 1.321-0.641 1.308-0.425 2.336-0.707 3.082-0.839zm-1.36 3.277h2.84v2.883h-2.84v-2.883zm7.039 4.723 0.52 0.277c0.133 0.242 0.305 0.469 0.52 0.68 0.375 0.347 0.226 0.148-0.442-0.598l2.281 1.359c-0.078-0.16-0.187-0.679-0.32-1.558-0.184 0.105-0.414 0.16-0.68 0.16-0.504-0.027-1.039-0.336-1.597-0.922 0 0.266 0.05 0.52 0.16 0.762-0.137-0.137-0.281-0.297-0.442-0.481l0.079 0.321h-0.079zm-3.16-8.043c0.668 0.215 1.426 0.402 2.282 0.562 0.586 0.293 0.89 1 0.918 2.121 0.242-0.242 0.359-0.375 0.359-0.402 0.187-0.133 0.426-0.199 0.723-0.199 0.293 0 0.57 0.187 0.839 0.558 0.321 0.403 0.704 1.16 1.161 2.282-2.668-0.934-4.403-1.895-5.204-2.879-0.425-0.536-0.785-1.215-1.078-2.043zm-1.761 0.562v-0.402h0.882v0.402h-0.882zm-1.278-3.722-0.922-0.758-0.16 0.039-1.32-0.039 0.359-0.442c-0.023-0.504 0.082-0.984 0.321-1.437 0.269-0.43 0.629-0.68 1.082-0.762 0.425-0.055 0.8 0.094 1.121 0.441 0.343 0.348 0.531 0.813 0.558 1.399 0.16-0.613 0.465-1.066 0.918-1.359 0.668 0.558 1 0.894 1 1 0 0.293-0.011 0.464-0.039 0.519-0.078 0.027-0.16 0.094-0.238 0.199-0.43 0.028-0.75-0.011-0.961-0.117-0.188-0.055-0.359-0.027-0.52 0.078v0.602c0 0.637-0.054 1.172-0.16 1.597-0.132 0.454-0.281 0.68-0.441 0.68s-0.359-0.547-0.598-1.64zm4.559-6.438 0.762 0.84-0.762-0.121v-0.719zm-3.238 0.438c0 0.16-0.055 0.281-0.161 0.363-0.082 0.105-0.203 0.16-0.363 0.16-0.133 0-0.25-0.055-0.359-0.16-0.078-0.082-0.117-0.203-0.117-0.363 0-0.133 0.039-0.25 0.117-0.356 0.109-0.082 0.226-0.121 0.359-0.121 0.16 0 0.281 0.039 0.363 0.121 0.106 0.106 0.161 0.223 0.161 0.356zm-2.321 7.761c-0.347-0.265-0.453-0.426-0.32-0.48 0.211-0.055 0.398-0.121 0.559-0.199 0.187 0.105 0.308 0.199 0.359 0.281 0.082 0.078 0.121 0.211 0.121 0.398 0.188 0.481 0.094 0.614-0.281 0.399 0.027 0.136 0.015 0.269-0.039 0.402l-0.121 0.16c-0.028-0.105-0.118-0.414-0.278-0.922v-0.039zm-3.441-5.679c0-0.293 0.148-0.536 0.441-0.719 0.266-0.215 0.598-0.321 1-0.321 0.399 0 0.746 0.106 1.039 0.321 0.266 0.183 0.399 0.426 0.399 0.719 0 0.265-0.133 0.507-0.399 0.718-0.293 0.188-0.64 0.282-1.039 0.282-0.402 0-0.734-0.094-1-0.282-0.293-0.211-0.441-0.453-0.441-0.718zm3.238-1.442c0-0.265 0.055-0.492 0.16-0.68 0.082-0.21 0.188-0.32 0.321-0.32 0.109 0 0.214 0.11 0.32 0.32 0.082 0.188 0.121 0.415 0.121 0.68 0 0.266-0.039 0.492-0.121 0.68-0.106 0.187-0.211 0.281-0.32 0.281-0.133 0-0.239-0.094-0.321-0.281-0.105-0.184-0.16-0.41-0.16-0.68zm-3.84-7.16-0.277 0.043 0.238-0.481c-0.453-0.269-0.84-0.335-1.16-0.199l0.52-0.922-1-0.16c0.242-0.133 0.586-0.254 1.043-0.359-0.856 0-1.387 0.215-1.602 0.64l1.238 2c0.27 0 0.508-0.066 0.723-0.199 0.184-0.082 0.277-0.203 0.277-0.363zm2.242-2.398-0.441 0.519c-0.051 0.106-0.039 0.215 0.039 0.32 0.16 0.215 0.535 0.375 1.121 0.481l0.481 0.039-0.121-1.16c-0.184 0-0.493 0.054-0.918 0.16-0.375 0.105-0.426-0.012-0.161-0.359zm15.84-1.36c-0.187 0.028-0.347 0.078-0.48 0.16 0.348 0.426 0.601 0.692 0.762 0.801l0.398-0.363c-0.348-0.051-0.574-0.25-0.68-0.598zm2.399-1.082 0.121 0.32c0.558 0.161 1.105 0.36 1.64 0.602 0 0.051-0.066 0.133-0.199 0.238 0.133 0.188 0.25 0.332 0.36 0.442 0.16 0.238 0.32 0.359 0.48 0.359 0.504 0 0.852-0.215 1.039-0.641 0.16-0.132 0.559-0.332 1.199-0.601-0.718-0.133-1.16-0.332-1.32-0.598l-0.117 0.121 0.078 0.516c-1.039-0.316-2.133-0.57-3.281-0.758zm9.121 15.801c0.055 0.082 0.082 0.176 0.082 0.281 0 0.133-0.027 0.227-0.082 0.278-0.051 0.082-0.133 0.121-0.238 0.121-0.082 0-0.149-0.039-0.204-0.121-0.078-0.051-0.117-0.145-0.117-0.278 0-0.105 0.039-0.199 0.117-0.281 0.055-0.078 0.122-0.121 0.204-0.121 0.105 0 0.183 0.043 0.238 0.121zm-6.16 2.719c0.242 0 0.601 0.136 1.082 0.402l0.359 0.32-1.441-0.722zm3.16-7.637c-0.133-0.16-0.199-0.336-0.199-0.523 0-0.184 0.066-0.344 0.199-0.477 0.082-0.16 0.199-0.242 0.359-0.242 0.133 0 0.266 0.082 0.403 0.242 0.078 0.133 0.117 0.293 0.117 0.477 0 0.187-0.039 0.363-0.117 0.523-0.137 0.133-0.27 0.199-0.403 0.199-0.16 0-0.277-0.066-0.359-0.199zm-6.879 6.16c0.105-0.137 0.238-0.203 0.398-0.203 0.161 0 0.309 0.066 0.442 0.203 0.078 0.106 0.121 0.238 0.121 0.399 0 0.187-0.043 0.332-0.121 0.441-0.133 0.133-0.281 0.199-0.442 0.199-0.16 0-0.293-0.066-0.398-0.199-0.133-0.109-0.199-0.254-0.199-0.441 0-0.161 0.066-0.293 0.199-0.399zm-4.481 1.359-0.64-0.839c0.133-0.055 0.293-0.082 0.48-0.082 0.215 0.027 0.375 0.105 0.481 0.242-0.055 0.265-0.16 0.492-0.321 0.679zm4.2-9.601c0.293 0.453 0.679 0.68 1.16 0.68 0.453 0 0.828-0.227 1.121-0.68 0.32-0.399 0.48-0.895 0.48-1.481 0-0.613-0.16-1.132-0.48-1.558-0.293-0.402-0.668-0.602-1.121-0.602-0.481 0-0.867 0.2-1.16 0.602-0.321 0.426-0.481 0.945-0.481 1.558 0 0.586 0.16 1.082 0.481 1.481zm0.242-4.078c0.105 0.023 0.863 0.094 2.277 0.199l0.762 0.078c-0.188-0.105-0.707-0.348-1.563-0.719-0.851-0.453-1.453-0.945-1.796-1.48l-0.364 0.961c0.27 0.558 0.496 0.879 0.684 0.961zm7.316 1.078c-0.133-0.16-0.265-0.242-0.398-0.242-0.16 0-0.281 0.082-0.36 0.242-0.132 0.16-0.199 0.359-0.199 0.601 0 0.239 0.067 0.438 0.199 0.598 0.079 0.188 0.2 0.281 0.36 0.281 0.133 0 0.265-0.093 0.398-0.281 0.082-0.16 0.121-0.359 0.121-0.598 0-0.242-0.039-0.441-0.121-0.601zm9.684-7.199-0.082 0.078 1 0.402-0.442 0.238c0 0.188 0.11 0.348 0.321 0.481 0.215 0.16 0.469 0.242 0.761 0.242l1.04-0.359c-0.215-0.375-0.442-0.629-0.68-0.762-0.348-0.266-0.985-0.375-1.918-0.32zm-6.641 15.039c-0.027-0.348 0.012-0.305 0.117 0.121l-0.117-0.121z" inkscape:connector-curvature="0"/>
      <path id="path18" style="fill-rule:evenodd;fill:#5c472f" d="m63.879 26.717c-0.024-0.051-0.078-0.09-0.156-0.118-0.161-0.132-0.348-0.242-0.563-0.32-0.531-0.242-1.238-0.309-2.121-0.199 0.563-0.641 0.977-1.016 1.242-1.121 0.321-0.106 0.852-0.082 1.598 0.078-0.024-0.32-0.156-0.68-0.399-1.078-0.32-0.426-0.531-0.735-0.64-0.922 0.133-0.637 0.269-1.543 0.402-2.719 0.133-1.121 0.199-1.879 0.199-2.281 0-0.477-0.015-0.613-0.039-0.399h-1l-0.043 0.52h-0.437l-0.043 1.519c-0.188-0.664-0.387-1.144-0.602-1.437l-0.156-0.281-0.84-0.922c0.184-0.184 0.305-0.266 0.36-0.238 0-0.028 0.093-0.305 0.281-0.84l-1.36-2.082-2.402 1.16c0 0.242-0.066 0.441-0.199 0.601-0.16 0.161-0.348 0.239-0.559 0.239-0.027 0.109-0.043 0.308-0.043 0.601 0 0.133 0.586 0.696 1.762 1.68 0.535 0.48 1.094 0.949 1.68 1.402 0 0.239-0.106 0.465-0.321 0.68-0.21 0.211-0.32 0.437-0.32 0.68 0 0.238 0.11 0.652 0.32 1.238 0.215 0.641 0.332 1.133 0.36 1.48l-0.121-0.281c-0.797-1.012-1.348-1.812-1.641-2.398 0-0.481-0.266-0.879-0.797-1.2-0.535-0.347-1.176-0.519-1.922-0.519l0.641 0.078c0 0.027-0.012 0.168-0.039 0.422 0.004-0.02 0.016-0.039 0.039-0.063 0.266 0.375 0.52 0.895 0.762 1.563 0.211 0.559 0.343 1 0.398 1.32-0.265-0.347-0.547-0.789-0.84-1.32-0.293-0.508-0.441-0.801-0.441-0.883v-0.078c-0.024 0.188-0.051 0.387-0.078 0.598-0.082 0.507-0.321 0.48-0.723-0.078-0.558 0.16-1.09 0.574-1.598 1.238-0.585 0.801-0.878 1.668-0.878 2.601l-0.043 0.442c-0.133 1.039-0.438 2.558-0.918 4.558-0.293 1.172-0.321 2.188-0.082 3.039l0.761 0.282c0.028-0.559 0.227-1.188 0.602-1.879 0.293-0.563 0.586-1 0.879-1.321l0.039 0.079c0.055 0.265 0.082 0.64 0.082 1.121 0 0.398-0.055 1.414-0.16 3.039l0.078 0.082c0.558 0.32 1.16 0.652 1.801 1 0.453 0.211 0.757 0.398 0.918 0.558 0.082-0.16 0.242-0.652 0.48-1.48 0.242-0.984 0.375-1.719 0.402-2.199 0-0.426 0.172-1.106 0.52-2.039 0.371-1.067 0.773-1.774 1.199-2.121l0.602-0.641c-0.27 3.016-0.453 4.961-0.563 5.84-0.187 1.254-0.574 2.441-1.16 3.562h0.082l0.801 0.078c0.183-0.425 0.289-1.066 0.316-1.921 0.028-0.747 0.094-1.333 0.2-1.758l0.082 0.16v0.801c-0.133 1.117-0.161 2.05-0.082 2.797l1.601 0.8c0.188-0.586 0.16-1.519-0.078-2.8-0.242-1.223-0.563-2.25-0.961-3.079l0.719-0.078c0.293 0.051 0.535 0.172 0.719 0.36 0.027 0.531 0.027 1.066 0 1.597 0.64-0.023 0.988 0.067 1.039 0.282 0.054 0.078 0.082 0.613 0.082 1.601 0 0.746 0.132 1.426 0.402 2.039l0.199-0.082 0.039-0.117c0.215-0.668 0.321-1.016 0.321-1.043 0.242 0.16 0.453 0.641 0.64 1.441 0.106-1.707 0.215-3.304 0.32-4.8 0.184-2.934 0.332-4.575 0.442-4.918-0.375-0.536-0.723-0.934-1.043-1.203zm0.242 11.96c-0.48-0.265-0.961-0.453-1.441-0.558-0.242 0.051-0.36 0.375-0.36 0.961l0.2-0.043c0.425 0 0.64 0.414 0.64 1.242 0.215-0.055 0.442-0.336 0.68-0.84l-0.199 0.801h0.32l0.16-1.563zm-9.402-6.199-0.399-1 0.078-0.121c0.082-0.023 0.149-0.039 0.204-0.039 0.078 0.16 0.117 0.399 0.117 0.719v0.441zm2.48-4.078 0.082-0.043c0.051 0.453 0.024 0.988-0.082 1.602l-0.078-0.602v0.883c-0.055 0-0.148 0.172-0.281 0.519l-0.281 0.559c-0.211-1.226-0.547-2.32-1-3.281-0.211-0.477-0.438-0.863-0.68-1.16l0.242-1.399c0.531 0.535 1.172 1.039 1.918 1.52 0.027 0.027 0.082 0.496 0.16 1.402zm-0.64-4c0-0.402 0.043-0.734 0.121-1 0.054-0.269 0.148-0.402 0.281-0.402 0.105 0 0.199 0.133 0.277 0.402 0.082 0.266 0.121 0.598 0.121 1 0 0.371-0.039 0.692-0.121 0.957-0.078 0.293-0.172 0.442-0.277 0.442-0.133 0-0.227-0.149-0.281-0.442-0.078-0.265-0.121-0.586-0.121-0.957zm6.082 6.918 0.039-0.441c0.054 0.027 0.093 0.121 0.121 0.281 0.027 0.215 0 0.402-0.082 0.559l-0.078-0.399zm-0.84-2.758c-0.11-0.187-0.16-0.402-0.16-0.64 0-0.293 0.082-0.547 0.238-0.762 0.133-0.215 0.32-0.32 0.562-0.32 0.239 0 0.454 0.105 0.637 0.32 0.137 0.215 0.203 0.469 0.203 0.762s-0.066 0.547-0.203 0.757c-0.183 0.215-0.398 0.321-0.637 0.321 0.024 0.16 0.039 0.336 0.039 0.519 0 0.266-0.039 0.508-0.121 0.723-0.132 0.184-0.281 0.277-0.437 0.277-0.16 0-0.293-0.093-0.402-0.277-0.106-0.215-0.161-0.457-0.161-0.723 0-0.238 0.055-0.465 0.161-0.679 0.082-0.133 0.171-0.227 0.281-0.278zm-0.723-3.761c-0.156-0.399-0.383-0.973-0.68-1.719-0.265-0.696-0.398-1.067-0.398-1.121 0-0.321 0.027-0.52 0.078-0.602 0.027-0.051 0.094-0.094 0.203-0.117 0.426 0.344 0.719 0.891 0.879 1.637 0.133 0.562 0.16 1.015 0.082 1.363l-0.164 0.559zm-15.918-5.321-0.039 0.039-0.519 0.481c0.343-0.188 0.531-0.36 0.558-0.52zm4.68-6.32 0.801 1.121-0.243-0.562-0.437-0.438l-0.121-0.121zm11.801 8.84-0.039-1.84c0.023 0 0.078-0.066 0.16-0.199l0.597 0.199c-0.027 0.215-0.132 0.574-0.32 1.082-0.211 0.504-0.348 0.758-0.398 0.758zm-1.039-1.961v0.48l-0.403-0.679c0.188-0.055 0.321 0.015 0.403 0.199zm-1.282-2.399-0.121-0.398c-0.027-0.32-0.027-0.535 0-0.641 0.133 0.106 0.199 0.371 0.199 0.801l-0.078 0.238zm-1.199-2.121c0.024 0.403 0.078 0.696 0.16 0.883 0.133 0.266 0.426 0.68 0.879 1.238-0.453 0.028-0.812-0.093-1.082-0.359-0.266-0.242-0.398-0.562-0.398-0.961 0-0.32 0.027-0.519 0.082-0.601l0.16-0.118 0.199-0.082z" inkscape:connector-curvature="0"/>
      <path id="path20" style="fill-rule:evenodd;fill:#7d5f40" d="m62.238 39.158 0.282-0.121-0.2 0.043-0.082 0.078zm-4.117-2.598h-0.082l-0.117 0.078 0.199-0.078zm1.277 4.117c0.161 0 0.309-0.05 0.442-0.16 0.105-0.105 0.16-0.238 0.16-0.398s-0.055-0.309-0.16-0.442c-0.133-0.078-0.281-0.117-0.442-0.117-0.16 0-0.304 0.039-0.437 0.117-0.109 0.133-0.16 0.282-0.16 0.442s0.051 0.293 0.16 0.398c0.133 0.11 0.277 0.16 0.437 0.16zm-1.558-1.277-0.719 0.359c0.664-0.082 1.172-0.226 1.52-0.441-0.055-0.055-0.321-0.027-0.801 0.082zm-44.36-8.48c-0.453-0.215-0.988-0.282-1.601-0.203l-0.359 0.042-0.239 0.278c-0.347-0.16-1.293-0.504-2.84-1.039-1.148-0.371-2.136-0.895-2.961-1.559-0.027 0 0 0.305 0.079 0.918v0.16l0.281 0.68c0.215 0.613 0.375 0.961 0.48 1.043l-0.281 0.078-0.078 0.039c0.934 0.426 2.133 1.027 3.598 1.801 0.562 0.32 1.148 0.48 1.761 0.48 0.614 0 1.348-0.214 2.2-0.64 0.027 0 0.093-0.055 0.199-0.16 0.027-0.055 0.043 0.066 0.043 0.359-0.16 0.402-0.203 0.641-0.121 0.723 0.078 0.105 0.734 0.398 1.961 0.879-0.375 0.293-0.762 0.546-1.161 0.761-1.839-0.668-2.949-1.093-3.32-1.281-1.734-0.426-3.508-0.812-5.32-1.16-1.016-0.242-1.641-0.746-1.879-1.52 0.023-0.132 0.066-0.215 0.117-0.242 0.293 0.215 0.453 0.293 0.481 0.242-0.106-0.375-0.415-1.039-0.918-2-0.457-0.855-0.68-1.336-0.68-1.441 0-0.106 0.051-0.199 0.156-0.281-0.023-0.344-0.359-1.2-1-2.559 0.055 1.867 0.094 3.852 0.121 5.961 0 0.348 0.403 0.746 1.199 1.199 0.457 0.239 1.188 0.614 2.204 1.121 0.265 0.078 1.503 0.719 3.718 1.918 2.266 1.254 4.012 2.254 5.239 3 3.148 1.867 5.574 2.856 7.281 2.961 1.039-0.293 1.668-0.304 1.879-0.039 0.136 0.16 0.254 0.453 0.359 0.879h0.524c-0.137-0.32-0.204-0.535-0.204-0.641l0.122-0.039c0.32-0.16 1.335 0.106 3.039 0.801h0.043c0.425-0.535 0.757-0.84 1-0.922 0.238-0.078 0.757-0.05 1.558 0.082v-0.199c-1.121-0.187-2.172-0.43-3.16-0.723l-1.281-0.039c0-0.054-0.078-0.144-0.239-0.281-0.214-0.133-0.375-0.226-0.48-0.277 0.668-0.481 1.602-0.856 2.801-1.121 0.48 0 0.625 0.011 0.437 0.039 0.348 0.347 0.336 0.746-0.039 1.199 0.133-0.051 0.629-0.012 1.481 0.121h0.082c0.05-0.078 0.144-0.148 0.277-0.199l0.32-0.039c0.106-0.16 0.067-0.442-0.121-0.84 0.403 0 0.75 0.105 1.043 0.32 1.278 0.985 2.145 1.625 2.598 1.918 1.281-0.508 2.226-0.761 2.84-0.761 0.32 0 0.586 0.121 0.801 0.363 0.105 0.16 0.308 0.453 0.601 0.879l2.481 0.398-0.161-0.199c-0.453-0.16-0.816-0.348-1.082-0.559 0.375-0.668 0.946-1.054 1.719-1.16 0.59-0.055 1.215 0.078 1.883 0.399-0.027-0.106-0.121-0.227-0.281-0.36l-0.078-0.16h0.398c0.027 0 0.266 0.121 0.719 0.359 0.453 0.243 1.176 0.36 2.16 0.36 0.242-0.32 0.601-0.531 1.082-0.637l0.359 0.117v0.801l-1.359-0.199 0.039 0.078c-0.133 0.109-0.508 0.27-1.121 0.48 0.695 0 1.652 0.055 2.883 0.161 0.797-0.532 1.211-1 1.238-1.399-0.398-0.375-1.133-0.668-2.199-0.879-0.723-0.187-2.188-0.414-4.403-0.683 0.348 0 0.614-0.118 0.801-0.36 0.266-0.293 0.602-0.504 1-0.64-0.078-1.012-1.039-1.852-2.879-2.52l-0.199-0.078 1-0.121c0.691 0 1.481 0.242 2.359 0.719l0.641 0.043h0.84c0 0.586-0.039 0.957-0.121 1.117l-0.16 0.203c0.054 0.023 1.082 0.387 3.082 1.078 0.449 0.082 0.851 0.266 1.199 0.559 0.293 0.242 0.734 0.722 1.32 1.441 0.344 0 1.012-0.094 2-0.281 0.907-0.16 1.426-0.266 1.559-0.32-0.293 0.296-0.602 0.496-0.918 0.601-0.617 0.242-1.496 0.242-2.641 0l-0.48-0.121 0.597 0.242c0.137 0 0.243 0.067 0.321 0.199 0.109 0.133 0.16 0.282 0.16 0.442l-0.277 0.199c2.105-0.105 3.664-0.066 4.679 0.121-0.16-0.137-0.269-0.242-0.32-0.32-0.133-0.137-0.199-0.348-0.199-0.641 0-0.32 0.066-0.508 0.199-0.562 0.051-0.024 0.211-0.039 0.48-0.039l-0.562-0.121c-0.426-0.024-0.746-0.024-0.957 0 0.133-0.024 0.492-0.184 1.078-0.477 0.586-0.242 0.973-0.43 1.16-0.563-0.348-0.558-0.855-0.878-1.519-0.96-0.641-0.079-1.829 0-3.563 0.242l-0.359 0.039c0.668-0.188 1.215-0.281 1.64-0.281 0.188-0.024 0.453-0.317 0.801-0.879-0.32-0.614-1.039-1.321-2.16-2.121-1.066-0.774-1.785-1.157-2.16-1.157-0.559 0-1.227 0.211-2 0.637l-0.801 0.16c0.668-0.824 1-1.265 1-1.32 0-0.399-0.238-0.945-0.719-1.637-0.082-0.137-0.414-0.59-1-1.363h-0.199l-0.121-0.719-1.602-1.16c-1.117-0.32-1.824-0.481-2.117-0.481l-0.043 0.403c0.375 0.48 0.629 0.918 0.762 1.32-0.027 0.184-0.145 0.211-0.359 0.078l-0.321-0.281-0.398-0.68 0.437 0.2-0.437-0.239v0.039l-0.043-0.039-0.719-0.121c-0.055 0.027-0.094 0.027-0.121 0l-0.039-0.039-0.359-0.121c-0.403-0.078-0.696-0.078-0.879 0l-0.723 0.641-0.039 0.082c0.027 0.504 0.586 0.945 1.68 1.32 1.386 0.477 2.215 0.84 2.48 1.078-0.48 0.242-0.879 0.492-1.199 0.762-0.055-0.137-0.508-0.574-1.359-1.321-0.883-0.746-1.457-1.335-1.723-1.761-0.184 0.082-0.453 0.148-0.801 0.199-0.316 0.055-0.476 0.066-0.476 0.043-0.188-0.188-0.364-0.32-0.524-0.402l-0.199-0.039c-0.32 0-0.934 0.171-1.84 0.519 0.266-0.266 0.414-0.945 0.441-2.039v-0.641c-0.027 0.536-0.242 1.133-0.64 1.801-0.426 0.692-0.735 1.227-0.918 1.598-0.188-0.426-0.363-0.719-0.524-0.879l-0.519-0.359c-1.145 0-2.106-0.493-2.879-1.481-0.828-0.984-1.238-2.172-1.238-3.559-0.188 1.227-0.297 2.106-0.321 2.641-0.082 0.824-0.093 1.879-0.043 3.16l0.161 0.317c0.32 0.32 0.855 0.683 1.601 1.082 0.215 0.105 0.481 0.414 0.801 0.918l-1.199 0.203c-0.989-0.641-1.481-1.121-1.481-1.442 0-0.48 0.012-0.746 0.039-0.8l0.078-0.278c-0.265-0.16-0.531-0.297-0.796-0.402l-0.364-0.078h-0.597l-1.879 0.117-1.723-0.039h-1.519c-0.719-0.481-1.227-0.961-1.52-1.441-0.508-0.719-0.906-2.157-1.199-4.317l-0.199 1.078-0.243 1.762c0.028 0.32 0.2 0.863 0.52 1.637 0.16 0.375 0.336 0.75 0.519 1.121l0.161 0.199c0.027 0.055 0.066 0.066 0.121 0.043 0.105-0.055 0.281-0.055 0.519 0l-0.597 0.078 0.238 0.52v0.039c0.027 0.027 0.055 0.043 0.082 0.043h0.039l0.277 0.199h0.043c0.266-0.027 0.852-0.106 1.758-0.242 1.016 0.054 1.883 0.496 2.602 1.32-0.321 0.32-0.801 0.602-1.442 0.84 0.696 0.402 1.375 0.961 2.039 1.68 0.696 0.562 1.828 0.843 3.403 0.843l-0.321 0.36-0.84 1.199c-0.187-0.133-0.359-0.281-0.519-0.442v0.161c0 0.214-0.106 0.386-0.32 0.519-0.215 0.16-0.481 0.242-0.801 0.242s-0.586-0.082-0.801-0.242c-0.211-0.133-0.32-0.305-0.32-0.519 0-0.211 0.109-0.399 0.32-0.559 0.215-0.133 0.481-0.199 0.801-0.199h0.238c-0.453-0.27-0.89-0.481-1.316-0.641-0.348-0.16-1.43-0.453-3.242-0.879 0.082-0.347 0.199-0.617 0.359-0.801 0.16-0.027 0.562-0.121 1.199-0.281-0.078-0.668-0.492-1.226-1.238-1.679-0.641-0.399-1.215-0.575-1.719-0.52l-2.519-0.242-0.883-0.32-0.199-0.2c-1.946-0.851-3.2-1.332-3.758-1.437l0.078 0.719 0.441 1.761 0.039 0.039h0.16c0.161 0.184 0.305 0.344 0.442 0.481-0.11-0.242-0.16-0.496-0.16-0.762 0.558 0.586 1.093 0.895 1.597 0.922 0.266 0 0.496-0.055 0.68-0.16 0.133 0.879 0.242 1.398 0.32 1.558l-2.281-1.359c0.668 0.746 0.817 0.945 0.442 0.598-0.215-0.211-0.387-0.438-0.52-0.68l-0.52-0.277zm32.879-0.883 1.161 0.441-0.52-0.238-0.641-0.203zm-18.199 7.16c0.133 0.16 0.305 0.387 0.52 0.68-1.68 0.32-3.133 0.347-4.36 0.082l-0.242-0.16c0.988-0.536 1.961-0.973 2.922-1.321 0.508 0.188 0.895 0.426 1.16 0.719zm7.442-25.637-0.243 0.719 0.082-0.402-0.203 0.882v2.399c0 0.695-0.093 1.293-0.277 1.801l-0.121 1.961c0.265-1.575 0.586-3.442 0.961-5.602 0.238-1.601 0.304-3.027 0.199-4.281-0.133 0.242-0.266 1.082-0.398 2.523zm-4.84 9.199c0.371-0.027 0.652-0.027 0.84 0l0.679-0.042c-0.883-0.293-1.613-0.891-2.203-1.797-0.293-0.453-0.547-0.934-0.758-1.442-0.187 0.508-0.465 0.867-0.84 1.082-0.32 0.184-0.48 0.465-0.48 0.84 0 0.449 0.32 0.824 0.961 1.117 0.586 0.242 1.184 0.321 1.801 0.242zm-24.321 5.438v2.883h2.84v-2.883h-2.84zm-4.441-2.957c0.027 0.477 0.055 0.957 0.078 1.437 0.297-0.21 0.723-0.398 1.281-0.558-0.613-0.266-1.066-0.559-1.359-0.879zm-0.16-3.602c0.027 0.481 0.066 0.989 0.121 1.52 0-0.051 0.039-0.106 0.117-0.16 0.16-0.078 0.496-0.188 1-0.321-0.558-0.343-0.933-0.64-1.117-0.878-0.055-0.055-0.094-0.106-0.121-0.161zm-0.68-7.32c0.238 1.68 0.426 3.574 0.559 5.68 0.082-0.211 0.16-0.453 0.242-0.719 0.238-0.641 0.359-1.078 0.359-1.32 0-2.266-0.093-3.492-0.281-3.68-0.105-0.105-0.398-0.094-0.879 0.039zm13.36 4.399 0.082 1.203c0.238 0.691 0.492 1.093 0.757 1.199 0.082 0.027 0.536 0.078 1.36 0.16 0.402-0.082 0.613-0.133 0.64-0.16 0.055-0.027 0.082-0.254 0.082-0.68 0-1.148-0.175-1.84-0.519-2.082-0.641-0.183-1.297-0.437-1.961-0.758l-0.32 0.118-0.121 1zm2.601-3.68-0.199-0.199c-0.297 0.132-0.453 0.414-0.481 0.839l0.079 0.04 0.96 1.601c0.215-0.641 0.293-1.094 0.239-1.359-0.051-0.188-0.254-0.492-0.598-0.922zm6.078 4.082v-0.602c-0.078-0.425-0.199-0.8-0.359-1.117-0.215-0.32-0.492-0.574-0.84-0.762-1.547 0-2.32 0.762-2.32 2.282 0 0.664 0.187 1.238 0.558 1.718 0.348 0.481 0.75 0.719 1.203 0.719 0.504 0 0.934-0.305 1.278-0.918 0.242-0.402 0.402-0.84 0.48-1.32zm29.199 22.719c-0.105 0.105-0.238 0.16-0.398 0.16-0.133 0-0.254-0.055-0.359-0.16-0.106-0.106-0.161-0.227-0.161-0.36 0-0.16 0.051-0.293 0.161-0.398 0.105-0.11 0.226-0.16 0.359-0.16 0.16 0 0.293 0.05 0.398 0.16 0.11 0.105 0.161 0.238 0.161 0.398 0 0.133-0.051 0.254-0.161 0.36zm-3-3.641h-2.558v-0.918h2.558v0.918zm3.563 1.48-2.762 0.161-0.758-0.2-1-0.601c0.985-0.184 2.039-0.465 3.161-0.84 0.476-0.16 0.933-0.133 1.359 0.082v1.398zm0.437-3.839 0.442 0.242-0.078-0.082-0.364-0.16zm-10.039 6.601-0.121-0.402 0.082-0.438c0.426 0.239 0.785 0.504 1.078 0.801l-1.039 0.039zm-2.718-2.402c-0.266-0.106-0.575-0.199-0.922-0.278l-0.84-0.199c0.402-0.402 1.082-0.562 2.043-0.48 0.664 0.051 1.211 0.172 1.637 0.359l0.64 0.36c-0.851 0.214-1.48 0.32-1.879 0.32-0.32 0-0.547-0.027-0.679-0.082zm6-0.637c-0.082 0-0.161-0.043-0.243-0.121-0.078-0.082-0.117-0.16-0.117-0.242 0-0.106 0.039-0.199 0.117-0.278 0.082-0.054 0.161-0.082 0.243-0.082 0.105 0 0.199 0.028 0.281 0.082 0.051 0.079 0.078 0.172 0.078 0.278 0 0.082-0.027 0.16-0.078 0.242-0.082 0.078-0.176 0.121-0.281 0.121zm-3.36-3.082 1.641-3.359 1.68 3.359h-3.321zm-6.679 3 0.32 0.399 1.476 0.722c-0.503 0.078-1.293 0.133-2.359 0.16-1.227 0.028-2.027-0.015-2.398-0.121l-0.36-0.039c-1.066-0.105-2.015-0.242-2.84-0.402 0.348-0.184 1.719-0.41 4.118-0.68l0.203-0.117c-0.242-0.27-0.43-0.481-0.563-0.641l-0.121-0.16c0.215-0.133 0.442-0.281 0.684-0.441 0.183-0.078 0.426-0.121 0.718-0.121 0.399 0.242 0.774 0.722 1.122 1.441zm3.039 2.199c0.293 0.055 0.437 0.16 0.437 0.321-0.183 0.054-0.57 0.066-1.156 0.039 0.156-0.133 0.133-0.239-0.082-0.317 0.265-0.082 0.535-0.093 0.801-0.043zm-5.762 1.961v0.039h0.043l-0.043-0.039zm-0.32-7.16c-0.637 0.055-1.161 0-1.559-0.16-0.613-0.238-1.238-0.719-1.879-1.441l0.84-0.278c1.094 0.664 1.664 1.012 1.719 1.039 0.132 0.106 0.425 0.387 0.879 0.84zm2.402 0.879c-0.055 0.055-0.547 0.187-1.481 0.402l-0.402-0.441c0.43-0.133 0.844-0.199 1.242-0.199 0.375 0.027 0.586 0.105 0.641 0.238zm3.238-1.398c1.039 0.293 2.321 0.414 3.84 0.359-1.387 0.266-2.32 0.402-2.801 0.402-0.343 0-1.105-0.093-2.277-0.281 0-0.16-0.094-0.336-0.281-0.52-0.133-0.187-0.239-0.281-0.321-0.281 0.293-0.054 0.907 0.055 1.84 0.321zm1-2.399c0.266 0.106 0.403 0.227 0.403 0.359 0 0.161-0.137 0.278-0.403 0.36-0.293 0.105-0.64 0.16-1.039 0.16-0.398 0-0.734-0.055-1-0.16-0.293-0.082-0.441-0.199-0.441-0.36 0-0.132 0.148-0.253 0.441-0.359 0.266-0.082 0.602-0.121 1-0.121 0.399 0 0.746 0.039 1.039 0.121zm-1.961-0.723c0.242-0.05 0.27 0.067 0.082 0.36l-0.679-0.117c0.078-0.028 0.281-0.11 0.597-0.243zm-2.558-6.078 0.558 0.559v-4.719l-0.636-1c-0.668 1.785-1 2.707-1 2.758 0 0.16 0.359 0.961 1.078 2.402zm6.359 0.399-0.117-0.719-0.32-0.68c-0.457-0.64-0.961-1.175-1.524-1.601l-0.476 0.082c0.105 0.211 0.277 0.597 0.519 1.16 0.371 0.586 1.012 1.172 1.918 1.758zm0.359-5.438-0.078-0.64-0.121-0.481c-0.293-0.402-0.48-0.613-0.558-0.64-0.082-0.082-0.348-0.122-0.801-0.122-0.293 0-0.508 0.055-0.641 0.161-0.054 0.027-0.133 0.121-0.238 0.281 0.398 0.078 0.613 0.121 0.641 0.121 0.343 0.16 0.945 0.598 1.796 1.32zm-0.117-3.523-0.32-0.477c-0.082-0.054-0.188-0.082-0.32-0.082h-0.082c0.136 0.239 0.375 0.426 0.722 0.559zm-4.519-0.598c-0.11-0.105-0.254-0.16-0.442-0.16-0.16 0-0.293 0.055-0.398 0.16-0.11 0.106-0.16 0.238-0.16 0.399 0 0.187 0.05 0.32 0.16 0.402 0.105 0.133 0.238 0.199 0.398 0.199 0.188 0 0.332-0.066 0.442-0.199 0.105-0.082 0.16-0.215 0.16-0.402 0-0.161-0.055-0.293-0.16-0.399zm-4.203 0.879c-0.028-0.105-0.321-0.601-0.879-1.48-0.559-0.879-0.934-1.399-1.121-1.559 0.027 0.027 0.242 0.426 0.64 1.199 0.348 0.719 0.801 1.332 1.36 1.84zm-2.559 26.32 0.84-0.32-0.481 0.082-0.359 0.238zm-6.238-3.48c-0.11 0.133-0.403 0.226-0.883 0.281l-0.16-0.242c0.269-0.105 0.574-0.16 0.922-0.16l0.121 0.121zm-7.762-1.16c-0.453-0.215-0.68-0.481-0.68-0.801s0.227-0.586 0.68-0.797c0.426-0.215 0.961-0.32 1.602-0.32 0.664 0 1.226 0.105 1.679 0.32 0.426 0.211 0.641 0.477 0.641 0.797s-0.215 0.586-0.641 0.801c-0.453 0.215-1.015 0.32-1.679 0.32-0.641 0-1.176-0.105-1.602-0.32zm1.359-2.719c0-0.105 0.067-0.199 0.2-0.281 0.136-0.055 0.281-0.078 0.441-0.078s0.32 0.023 0.48 0.078c0.106 0.082 0.161 0.172 0.161 0.281 0 0.078-0.055 0.148-0.161 0.199-0.16 0.082-0.32 0.121-0.48 0.121s-0.305-0.039-0.441-0.121c-0.133-0.054-0.2-0.121-0.2-0.199zm-1.078-1.641c-0.293 0-0.547-0.078-0.761-0.238-0.161-0.187-0.282-0.281-0.36-0.281l0.199-0.32 1.161-0.282 2.121 0.2c-0.321 0.187-0.801 0.386-1.442 0.601-0.531 0.215-0.84 0.32-0.918 0.32zm4.68 2.36c-0.188-0.078-0.348-0.188-0.481-0.321 0.188-0.105 0.399-0.183 0.641-0.238 0.266-0.055 0.453-0.027 0.559 0.078-0.133 0.133-0.375 0.293-0.719 0.481zm-0.723-12.758h0.723v-0.563h-0.723v0.563zm4.203 8.758 0.879-0.239 0.481 0.161c-0.028 0.023-0.414 0.277-1.16 0.757-0.215-0.078-0.309-0.359-0.282-0.839 0.055 0 0.082 0.054 0.082 0.16zm5.039-6.078c0.215 0 0.415-0.11 0.598-0.321 0.137-0.187 0.203-0.429 0.203-0.722 0-0.266-0.066-0.52-0.203-0.758-0.183-0.188-0.383-0.281-0.598-0.281-0.214 0-0.386 0.093-0.519 0.281-0.188 0.238-0.281 0.492-0.281 0.758 0 0.297 0.093 0.535 0.281 0.722 0.133 0.211 0.305 0.321 0.519 0.321zm-5.32-1.563c0.028 0.293 0.215 0.563 0.559 0.801l0.043-0.039c0.05-0.082 0.078-0.266 0.078-0.559 0-0.297-0.078-0.48-0.238-0.562-0.188-0.055-0.309-0.094-0.364-0.121l-0.078 0.48zm-18.039 1c0.106 0.137 0.227 0.203 0.359 0.203 0.161 0 0.293-0.066 0.399-0.203 0.109-0.105 0.16-0.238 0.16-0.398s-0.051-0.309-0.16-0.442c-0.106-0.078-0.238-0.117-0.399-0.117-0.132 0-0.253 0.039-0.359 0.117-0.109 0.133-0.16 0.282-0.16 0.442s0.051 0.293 0.16 0.398zm3.199-2.48c0.293 0.828 0.653 1.507 1.078 2.043 0.801 0.984 2.536 1.945 5.204 2.879-0.457-1.122-0.84-1.879-1.161-2.282-0.269-0.371-0.546-0.558-0.839-0.558-0.297 0-0.536 0.066-0.723 0.199 0 0.027-0.117 0.16-0.359 0.402-0.028-1.121-0.332-1.828-0.918-2.121-0.856-0.16-1.614-0.347-2.282-0.562zm-2-4.719 0.16 0.32c0.161-0.105 0.332-0.133 0.52-0.078 0.215 0.106 0.535 0.145 0.961 0.117 0.078-0.105 0.16-0.172 0.238-0.199 0.028-0.055 0.039-0.226 0.039-0.519 0-0.106-0.332-0.442-1-1-0.453 0.293-0.758 0.746-0.918 1.359zm0.282-4.441c0-0.133-0.055-0.25-0.161-0.356-0.082-0.082-0.203-0.121-0.363-0.121-0.133 0-0.25 0.039-0.359 0.121-0.078 0.106-0.117 0.223-0.117 0.356 0 0.16 0.039 0.281 0.117 0.363 0.109 0.105 0.226 0.16 0.359 0.16 0.16 0 0.281-0.055 0.363-0.16 0.106-0.082 0.161-0.203 0.161-0.363zm-2.524 0.64c0 0.27 0.055 0.496 0.16 0.68 0.082 0.187 0.188 0.281 0.321 0.281 0.109 0 0.214-0.094 0.32-0.281 0.082-0.184 0.121-0.41 0.121-0.68 0-0.265-0.039-0.492-0.121-0.68-0.106-0.21-0.211-0.32-0.32-0.32-0.133 0-0.239 0.11-0.321 0.32-0.105 0.188-0.16 0.415-0.16 0.68zm-3.238 1.442c0 0.265 0.148 0.507 0.441 0.718 0.266 0.188 0.598 0.282 1 0.282 0.399 0 0.746-0.094 1.039-0.282 0.266-0.211 0.399-0.453 0.399-0.718 0-0.293-0.133-0.536-0.399-0.719-0.293-0.215-0.64-0.321-1.039-0.321-0.402 0-0.734 0.106-1 0.321-0.293 0.183-0.441 0.426-0.441 0.719zm29 2.359c-0.051-0.078-0.133-0.121-0.238-0.121-0.082 0-0.149 0.043-0.204 0.121-0.078 0.082-0.117 0.176-0.117 0.281 0 0.133 0.039 0.227 0.117 0.278 0.055 0.082 0.122 0.121 0.204 0.121 0.105 0 0.183-0.039 0.238-0.121 0.055-0.051 0.082-0.145 0.082-0.278 0-0.105-0.027-0.199-0.082-0.281zm-3-4.918c0.082 0.133 0.199 0.199 0.359 0.199 0.133 0 0.266-0.066 0.403-0.199 0.078-0.16 0.117-0.336 0.117-0.523 0-0.184-0.039-0.344-0.117-0.477-0.137-0.16-0.27-0.242-0.403-0.242-0.16 0-0.277 0.082-0.359 0.242-0.133 0.133-0.199 0.293-0.199 0.477 0 0.187 0.066 0.363 0.199 0.523zm-11.36 7.519c0.161-0.187 0.266-0.414 0.321-0.679-0.106-0.137-0.266-0.215-0.481-0.242-0.187 0-0.347 0.027-0.48 0.082l0.64 0.839z" inkscape:connector-curvature="0"/>
      <path id="path22" style="fill-rule:evenodd;fill:#54412b" d="m63.16 26.279c-0.64-0.375-1.055-0.535-1.238-0.48l1.957-0.762c-0.746-0.16-1.277-0.184-1.598-0.078-0.269 0.105-0.679 0.48-1.242 1.121 0.883-0.11 1.586-0.043 2.121 0.199zm0.719 0.438c0.32 0.269 0.668 0.667 1.043 1.203 0.023-0.215-0.055-0.723-0.242-1.52-0.215-0.855-0.321-1.375-0.321-1.562 0-0.481 0.094-1.758 0.282-3.84l-0.563 0.039-0.039 3.32c0 0.242 0.121 0.75 0.359 1.52 0.215 0.75 0.321 1.242 0.321 1.48l-0.16-0.199c-0.239-0.16-0.465-0.305-0.68-0.441zm0.199-9.918-0.078-0.161c-0.215-0.16-0.492-0.293-0.84-0.398-0.375-0.055-0.652-0.066-0.84-0.043 0.078 0.109 0.106 0.586 0.078 1.441h1c0.028-0.214 0.043-0.078 0.043 0.399 0 0.402-0.066 1.16-0.203 2.281-0.133 1.176-0.265 2.082-0.398 2.719 0.453-0.719 0.746-1.84 0.883-3.36 0.132-1.437 0.089-2.304-0.121-2.597 0.21-0.028 0.371-0.121 0.476-0.281zm-2.797 1.441c0.211 0.293 0.414 0.773 0.598 1.437l0.043-1.519h-0.16l-0.481 0.082zm-0.359-2.281c-0.188 0.535-0.281 0.812-0.281 0.84-0.055-0.028-0.176 0.05-0.364 0.238l0.844 0.922-0.121-0.442h1c0.078-0.078 0.121-0.265 0.121-0.558 0-0.055-0.082-0.266-0.242-0.641-0.188-0.426-0.399-0.812-0.641-1.16-0.05 0.027-0.078 0.16-0.078 0.402 0 0.266 0.028 0.399 0.078 0.399h-0.316zm-3.762-0.922 2.399-1.16 1.242-0.118 0.277-0.199c0.055-0.242 0.043-0.457-0.039-0.644-0.16-0.344-0.68-0.571-1.559-0.68-0.453 0.402-0.918 0.934-1.402 1.602-0.531 0.722-0.84 1.121-0.918 1.199zm0.918 5.922c0.297 0.586 0.844 1.386 1.641 2.398l0.121 0.281c-0.028-0.347-0.149-0.839-0.36-1.48-0.214-0.586-0.32-1-0.32-1.238 0-0.243 0.106-0.469 0.32-0.68 0.211-0.215 0.321-0.441 0.321-0.68-0.59-0.453-1.149-0.922-1.68-1.402-1.176-0.984-1.762-1.547-1.762-1.68 0-0.293 0.012-0.492 0.039-0.601-0.187 0.215-0.332 0.468-0.437 0.761l-0.481 1.481-0.359-1.602c0.426-1.199 0.984-1.972 1.68-2.32 0.476-0.211 0.719-0.719 0.719-1.52 0-0.558-0.332-1.117-1-1.679-0.829-0.614-1.747-0.785-2.762-0.52 0.027-0.027 0.226-0.133 0.601-0.32 0.188-0.078 0.293-0.184 0.321-0.32-0.028-0.266-0.321-0.653-0.879-1.161-0.481-0.449-0.922-0.773-1.321-0.957-0.535 0.481-0.828 1.145-0.882 2 0.027 0.907 0 1.52-0.078 1.84l0.121 0.758c0.183-0.266 0.304-0.398 0.359-0.398l0.078-0.442c-0.051-0.398-0.144-0.758-0.277-1.078 2.398 0.481 3.703 1.051 3.918 1.719 0 0.215-0.559 1.613-1.68 4.199 0 0.242 0.106 0.559 0.32 0.961 0.188 0.371 0.282 0.68 0.282 0.918 0 0.43-0.586 0.84-1.762 1.242-1.387 0.481-2.215 0.852-2.481 1.121h0.122l1.918 0.879c0.187-0.375 0.429-0.746 0.722-1.121 0.184-0.187 0.399-0.359 0.641-0.519 0.211 0.05 0.344 0.293 0.398 0.718-1.066 1.227-1.601 1.653-1.601 1.282-0.024 0.05-0.106 0.464-0.239 1.238-0.027 0.32-0.16 0.476-0.398 0.48 0.426 0.004 0.559 0.325 0.398 0.961l0.239 0.16c0-0.933 0.297-1.8 0.882-2.601 0.504-0.664 1.04-1.078 1.598-1.238 0.402 0.558 0.641 0.585 0.723 0.078 0.023-0.211 0.051-0.41 0.078-0.598 0-0.266 0.016-0.426 0.039-0.48l0.043-0.04v-0.019c0.027-0.254 0.039-0.395 0.039-0.422l-0.641-0.078c0.536-0.375 1.094-0.496 1.68-0.363 0.934 0.242 1.508 1.215 1.723 2.922l-0.082-0.2-0.602-0.64zm2.402 1.718c0.055-0.027 0.133 0.028 0.243 0.161 0.023 0.132 0 0.16-0.082 0.082-0.082-0.082-0.133-0.161-0.161-0.243zm-10.082-8.96 0.243 0.562-0.801-1.121c-0.051-0.106-0.133-0.199-0.238-0.281 0-0.184 0.093-0.426 0.277-0.719 0.266-0.399 0.613-0.731 1.043-1l-1.684-0.84 1.801-0.281 0.039-1.36c0-0.453-0.105-1.027-0.316-1.718l-0.282-0.481c-0.558-0.105-0.839 0.082-0.839 0.559 0 0.59-0.215 1.121-0.641 1.601l-0.559 0.399c0.161-0.985 0.414-2.067 0.758-3.238 0-0.508-0.332-1.094-1-1.762-0.746-0.719-1.344-0.774-1.801-0.16l-0.199-0.758 0.039 1.68 1.801-0.04c0.106 0.665 0.16 1.239 0.16 1.719 0 0.188-0.344 0.946-1.039 2.281 0.641 1.04 0.961 1.598 0.961 1.68 0 0.051-0.148 0.305-0.441 0.758-0.375 0.508-0.586 0.855-0.641 1.043 0.613 0.453 1.242 0.879 1.883 1.277 0.371 0.27 0.558 0.614 0.558 1.043 0 0.852-0.105 1.41-0.32 1.68-0.187 0.238-0.613 0.371-1.281 0.398 0.48 0.133 0.906 0.481 1.281 1.039 0.481 0.696 0.906 1.161 1.281 1.403l0.68-0.121c-0.402-1.492-0.586-2.481-0.562-2.961 0.027-0.293 0.109-0.867 0.242-1.719 0-0.055-0.133-0.242-0.403-0.562zm13.723 24.96 0.039-1.039c-0.187-0.8-0.398-1.281-0.64-1.441 0 0.027-0.106 0.375-0.321 1.043h0.281c0.055 0.133 0.082 0.453 0.082 0.957l-0.402-0.84-0.199 0.082c-0.27-0.613-0.402-1.293-0.402-2.039 0-0.988-0.024-1.523-0.079-1.601-0.054-0.215-0.402-0.305-1.042-0.282 0.027-0.531 0.027-1.066 0-1.597-0.184-0.188-0.426-0.309-0.719-0.36l-0.719 0.078c0.398 0.829 0.719 1.856 0.961 3.079 0.238 1.281 0.266 2.214 0.078 2.8l0.242 0.403 0.078 0.437 0.563-1.957 0.117 2.957 0.199-0.199 0.082-0.078c0-0.586 0.118-0.906 0.36-0.961 0.48 0.105 0.961 0.293 1.441 0.558zm-2.84 0.602-0.203 0.32-0.078 0.2 0.281-0.52zm-3.84-7.32 0.321-0.641c0 1.734 0.039 3.508 0.117 5.32h0.043l0.117-0.078c0.586-1.121 0.973-2.308 1.16-3.562 0.11-0.879 0.293-2.828 0.563-5.84l-0.602 0.641c-0.426 0.347-0.828 1.05-1.199 2.121-0.348 0.933-0.52 1.613-0.52 2.039zm-11.121-1.922h0.039l0.641 0.203c0.105-2.43 0.066-4.055-0.121-4.883-0.106-0.453-0.266-0.863-0.481-1.238 0.11 1.625 0.149 2.734 0.122 3.32-0.051 0.774-0.227 1.399-0.52 1.879l0.121 0.719h0.199zm7.442 3.961c0.105-1.625 0.16-2.641 0.16-3.039 0-0.481-0.027-0.852-0.082-1.121l-0.039-0.079c-0.293 0.321-0.586 0.758-0.879 1.321-0.375 0.691-0.574 1.32-0.602 1.879l0.121 0.16c0.106-0.242 0.387-0.641 0.84-1.199l0.117 0.277v1.641l0.364 0.16zm-4.563-0.961v-0.36l-0.801 0.641c0.055 0 0.161-0.055 0.321-0.16 0.187-0.106 0.347-0.145 0.48-0.121zm2.36-0.36c-0.239-0.851-0.211-1.867 0.082-3.039 0.48-2 0.785-3.519 0.918-4.558l-0.039-0.242c-0.051-0.079-0.094-0.094-0.122-0.039l-0.078 0.96c-0.265-0.187-0.48-0.335-0.64-0.441-0.266-0.133-0.547-0.199-0.84-0.199-0.266 0-0.602 0.051-1 0.16-0.399 0.133-0.668 0.199-0.801 0.199l0.281 1.68c0.293-0.348 0.602-0.625 0.918-0.84v-0.199l1.16 0.078c0.11 0.27 0.176 0.414 0.204 0.441 0.023 0.106 0.039 0.305 0.039 0.602 0 0.293-0.028 0.57-0.082 0.84l-0.118 0.359-0.121-0.199c-0.027 0.238-0.359 0.73-1 1.477-0.558 0.667-0.867 1.375-0.922 2.121v0.082c0.161-0.403 0.364-0.602 0.602-0.602l0.121 1.399 1.438-0.04zm5.562-3.32-0.043-0.199 0.121-0.758c-0.078-0.906-0.133-1.375-0.16-1.402-0.746-0.481-1.387-0.985-1.918-1.52l-0.242 1.399c0.242 0.297 0.469 0.683 0.68 1.16 0.453 0.961 0.789 2.055 1 3.281l0.281-0.559c0.133-0.347 0.226-0.519 0.281-0.519v-0.883zm-0.883-1.758c0-0.48 0.137-0.574 0.403-0.281 0.214 0.215 0.347 0.414 0.398 0.602 0.082 0.343 0.039 0.957-0.117 1.839l-0.242-0.441c-0.293-0.746-0.442-1.32-0.442-1.719zm6.203 1.399c-0.027-0.055-0.054-0.106-0.082-0.16-0.132-0.188-0.281-0.278-0.437-0.278h-0.121c-0.11 0.051-0.199 0.145-0.281 0.278-0.106 0.214-0.161 0.441-0.161 0.679 0 0.266 0.055 0.508 0.161 0.723 0.105 0.184 0.242 0.277 0.402 0.277 0.156 0 0.305-0.093 0.437-0.277 0.082-0.215 0.121-0.457 0.121-0.723 0-0.183-0.015-0.359-0.039-0.519zm-1.363-4.199 0.16-0.559c0.082-0.348 0.055-0.801-0.078-1.363-0.16-0.746-0.453-1.293-0.883-1.637-0.105 0.023-0.172 0.066-0.199 0.117-0.051 0.082-0.078 0.281-0.078 0.602 0 0.054 0.133 0.425 0.398 1.121 0.293 0.746 0.524 1.32 0.68 1.719zm-7.84-11.122-0.16-0.277c-0.664 0.211-1.183 0.543-1.558 1 0.375 0.344 0.785 0.692 1.242 1.039 0.211-0.426 0.359-0.64 0.437-0.64l0.039-1.122z" inkscape:connector-curvature="0"/>
      <path id="path24" style="fill-rule:evenodd;fill:#59452e" d="m61.039 37.517-1.598-0.8-0.519-0.079-0.801-0.078-0.199 0.078h-0.043c-0.664 0.293-1.106 0.454-1.32 0.481 0 0.078 0.308 0.121 0.921 0.121 0.719 0.023 1.188 0.117 1.399 0.277-0.024 0.348-0.133 0.801-0.317 1.36 0.637 0.136 1.211 0.402 1.719 0.8 0.531 0.426 1.239 0.747 2.117 0.961 0.481-0.078 0.895-0.214 1.243-0.398l0.199-0.801c-0.238 0.504-0.465 0.785-0.68 0.84 0-0.828-0.215-1.242-0.64-1.242l-0.282 0.121-0.199 0.199-0.117-2.957-0.563 1.957-0.078-0.437-0.242-0.403zm0.242 1.762-0.281 0.52 0.078-0.2 0.203-0.32zm-26.801-17.762c0-0.293-0.093-1.226-0.281-2.8 0-0.426 0.067-0.704 0.199-0.84l0.563-0.918c0.184-0.508 0.277-1.106 0.277-1.801v-2.399c-0.105 1.547-0.16 2.532-0.16 2.958-0.183 0.375-0.426 0.777-0.719 1.203-0.265 0.32-0.464 0.519-0.597 0.597l0.117 0.481c0.215 0.961 0.281 1.695 0.199 2.199l-0.156 0.84c0 0.055-0.016 0.109-0.043 0.16l-0.719 1.723c0 0.613 0.281 1.172 0.84 1.679 0.559 0.481 0.84 1.039 0.84 1.68 0 0.984-0.481 1.945-1.442 2.879 0.161 0.16 0.336 0.453 0.524 0.879 0.183-0.371 0.492-0.906 0.918-1.598 0.398-0.668 0.613-1.265 0.64-1.801v0.641l0.122-1.039c0-0.773-0.215-1.481-0.641-2.121l-0.883-0.879 0.402-1.723zm0.961-9.64-0.082 0.402 0.243-0.719-0.161 0.239v0.078zm-1.8 5.16-0.2-0.117c0.129 0.082 0.168 0.132 0.118 0.16l0.082-0.043zm-10.602 12.121 1.723 0.039c-0.028-0.348 0.05-0.68 0.238-1 0.16-0.293 0.375-0.453 0.641-0.48 0.265 0 0.492 0.121 0.679 0.363 0.188 0.238 0.293 0.57 0.321 1h0.597c-0.133-0.27-0.636-0.84-1.519-1.723-0.957-0.957-1.559-1.547-1.797-1.758l-0.121 0.118c0.027 0.136 0.133 0.453 0.32 0.96 0.184 0.481 0.277 0.856 0.277 1.122 0 0.078-0.16 0.281-0.476 0.601-0.32 0.317-0.617 0.57-0.883 0.758zm-11.078-0.598-0.281 0.598 0.199 1.559c0.613-0.079 1.148-0.012 1.601 0.203h0.079l-0.239-0.321-0.039-0.039c-0.109-0.215-0.547-0.883-1.32-2zm0.84-8.32 1.238 0.32-0.641-0.722-0.597 0.402zm-1 0.32 0.597-0.203c-0.476 0.027-0.945 0.027-1.398 0-0.508-0.051-0.762-0.117-0.762-0.199l-0.679-0.199c0.375 0.508 0.601 0.8 0.679 0.879 0.028 0.027 0.547-0.067 1.563-0.278zm6.801 3.918c-0.403-0.719-0.774-1.304-1.122-1.761l-0.359-0.278c0.184 0.266 0.32 0.664 0.399 1.199 0.132 0.536 0.175 0.989 0.121 1.36 0 1.148-0.067 2.054-0.2 2.719-0.082 0.32-0.242 0.8-0.48 1.441l-0.242 0.559 0.883 0.32c-0.028-1.305 0.132-2.16 0.476-2.559 0.777 1.121 1.32 1.879 1.641 2.281l-0.117-0.441-0.043-0.121-0.161-0.199c-0.183-0.371-0.359-0.746-0.519-1.121-0.32-0.77-0.492-1.317-0.52-1.637l0.243-1.762zm-12.641 6.602-0.121-0.883l-0.281-0.68v-0.16l-0.481-0.68-0.078 1.481c0 0.773 0.145 1.281 0.441 1.519l0.118-1.437 0.16 0.117 0.242 0.723zm5.16 3.199c0.371 0.188 1.481 0.613 3.32 1.281-0.136-0.722-0.453-1.187-0.961-1.402-0.535-0.188-1.32-0.145-2.359 0.121zm6.199-24.562c0.426-0.239 0.895-0.383 1.399-0.438-0.692 0.027-1.399-0.066-2.117-0.281 0.05-0.106 0.183-0.371 0.398-0.801 0.215-0.48 0.32-0.867 0.32-1.16 0-0.824-0.386-1.41-1.16-1.758-0.668 0-1.465 0.371-2.398 1.121-0.856 0.692-1.43 1.332-1.723 1.918l-0.359-2.281-1-0.039c-1.254 0-2.039 0.078-2.36 0.238-0.508 0.215-0.773 0.734-0.8 1.563-1.254-0.375-2.067-0.563-2.442-0.563 0.348-0.023 0.617-0.16 0.801-0.398 0.082-0.161 0.121-0.309 0.121-0.442l-3.121-0.277c-0.133 0.613-0.348 0.973-0.641 1.082 0 0.16-0.093 0.277-0.277 0.359-0.215 0.133-0.453 0.199-0.723 0.199l0.121 1.641c0.028-0.613 0.106-1.055 0.243-1.32 0.16-0.266 0.425-0.403 0.796-0.403 0.907 0 1.364 0.348 1.364 1.043 0 0.293-0.16 0.481-0.481 0.559-0.535 0.105-0.816 0.16-0.84 0.16 0.184 0.055 0.504 0.149 0.957 0.281 0.43 0.161 0.735 0.399 0.922 0.719 0.239-0.64 0.602-1.121 1.078-1.441 0.43-0.321 0.856-0.481 1.282-0.481 0.773 0 1.16 0.336 1.16 1 0 0.293-0.078 0.547-0.238 0.762-0.188 0.133-0.309 0.238-0.364 0.32 0.457 0 0.856 0.106 1.203 0.317 0.293 0.242 0.438 0.523 0.438 0.843 0.055 0.239 0.055 0.641 0 1.2v0.359c0.266-0.668 0.402-1.266 0.402-1.801 0-0.105-0.136-0.625-0.402-1.558-0.293-1.012-0.453-1.692-0.481-2.039 0.028-0.426 0.055-0.668 0.082-0.719 0.079-0.137 0.293-0.203 0.641-0.203 1.254 0 2.227 0.441 2.918 1.32l0.602-0.039c0.027-0.027 0.066-0.082 0.121-0.16 0.133-0.133 0.277-0.199 0.437-0.199 0.188 0 0.336 0.066 0.442 0.199 0.078 0.082 0.132 0.148 0.16 0.199 0.984 0.055 1.824 0.227 2.519 0.52 0.078 0.054 0.172 0.109 0.282 0.16 0.398 0.215 0.636 0.453 0.718 0.719zm-2.359 1.8c0.559 0 0.906 0.067 1.039 0.2 0-0.239 0.055-0.477 0.16-0.719-0.348 0.16-0.746 0.332-1.199 0.519zm0.598 1.2c0.027-0.051 0.027-0.184 0-0.399-0.028-0.215-0.106-0.371-0.239-0.48l0.239 0.879zm6.082 1.441c0.371 0 1.148 0.176 2.32 0.519 1.492 0.403 2.68 0.868 3.559 1.403 0.265 0 0.867 0.16 1.8 0.48h0.078l0.442-0.281c0-0.348-0.172-0.652-0.52-0.922-0.375-0.265-0.828-0.398-1.359-0.398-0.106-0.028-0.227-0.067-0.359-0.121-0.641-0.133-1.614-0.426-2.922-0.879-1.121-0.399-2.321-0.614-3.602-0.641l-0.476 0.281 1.039 0.559zm3.238 3.519c-0.293-0.293-0.586-0.492-0.879-0.597-0.266 0.32-0.32 0.703-0.16 1.16 0.105 0 0.215 0.023 0.32 0.078 0.078 0.027 0.121 0.066 0.121 0.121l0.039-0.039c0.16 0 0.293-0.066 0.399-0.203 0.109-0.133 0.16-0.305 0.16-0.52zm1.601-5.519 0.282-0.32c-0.215-0.508-0.442-0.84-0.684-1l-0.879 0.082c0.215 0.425 0.481 0.707 0.801 0.839 0.133 0.051 0.293 0.188 0.48 0.399zm0.559-7.359c-0.133 0.558-0.453 1.398-0.961 2.519-0.476 1.121-0.719 1.707-0.719 1.758 0.106-0.078 0.321-0.172 0.641-0.277 0.32-0.11 0.586-0.149 0.801-0.122l-0.762-0.398 0.481-0.48 0.601-0.442c-0.16 0.508-0.254 0.801-0.281 0.879-0.106 0.27-0.106 0.414 0 0.441 0.082 0.028 0.32 0.149 0.719 0.36l0.32 0.281-0.559-2.48-0.039-0.239c0-0.32 0.106-0.617 0.321-0.882 0.21-0.239 0.464-0.36 0.757-0.36 0.161-0.426 0.188-0.68 0.082-0.758l-1.402 0.2zm3.402 0.039-0.48-0.758-0.762 1.078 1.242-0.32zm5.278-1.801c0.562 0.293 0.922 0.508 1.082 0.64-0.028 0.082-0.149 0.293-0.36 0.641 0.106 0.242 0.36 0.547 0.758 0.922 0.348 0.344 0.586 0.625 0.723 0.84 0-0.856-0.227-1.574-0.684-2.16-0.426-0.59-0.933-0.883-1.519-0.883zm2.281 5.523c-0.027 0.157 0.066 0.344 0.281 0.559 0.106 0.133 0.293 0.332 0.559 0.598 0 0.054-0.145 0.308-0.442 0.761-0.293 0.508-0.464 0.879-0.519 1.121-0.051 0.371 0.055 0.493 0.32 0.36 0.133-0.055 0.36-0.176 0.68-0.36 0.668-1.254 1-1.922 1-2 0-0.59-0.133-1.015-0.399-1.281-0.265-0.269-0.695-0.402-1.281-0.402h-0.039l-0.16 0.644zm1.762 2.918-0.364 0.239c0.188-0.079 0.309-0.04 0.364 0.121v0.242c0.05-0.242 0.05-0.442 0-0.602zm3.117-1.64c0.32-0.348 0.48-0.625 0.48-0.84l-0.039-1.918c-0.535 0.16-0.879 0.265-1.039 0.32-0.242 0.078-0.359 0.492-0.359 1.238l0.957 1.2zm-2.598 0.039c0.133 0 0.239-0.078 0.321-0.239 0.078-0.187 0.117-0.398 0.117-0.64l-0.438 0.879zm1.239-7.84-1.04 0.363c-0.558 0.504-1.027 0.891-1.402 1.16l0.922 3.399c-0.055-0.266-0.027-0.481 0.078-0.641 0.082-0.187 0.121-0.387 0.121-0.601 0-0.239-0.094-0.481-0.277-0.719-0.215-0.239-0.32-0.481-0.32-0.719 0-0.266 0.625-0.746 1.878-1.441 0.188 0.082 0.266 0.453 0.239 1.121-0.078 0.238-0.117 0.601-0.117 1.078 0 0.293 0.011 0.469 0.039 0.523 0.054 0.024 0.148 0.078 0.281 0.157 0.078-0.211 0.211-0.559 0.398-1.04 0.078-0.214 0.16-0.386 0.239-0.519l-0.637-2.281-0.402 0.16zm3.8-0.078c-0.453-0.028-0.746-0.082-0.879-0.16-0.109-0.028-0.347-0.227-0.722-0.602-0.11 0.145-0.231 0.355-0.36 0.641 0.563 0.32 0.922 0.492 1.082 0.519 0.106 0 0.348-0.066 0.719-0.199l0.16-0.16v-0.039zm3.442 36.359-0.762-0.039-0.398 0.078c1.839 0.828 2.703 1.922 2.597 3.281l1.403-0.359 0.277-0.199c-0.133-0.242-0.293-0.453-0.481-0.641l-0.597-0.242 0.48 0.121c-0.586-0.719-1.027-1.199-1.32-1.441-0.348-0.293-0.746-0.477-1.199-0.559zm-2.922-1.281c-0.133-0.453-0.371-0.824-0.719-1.117l-0.641-0.043c-0.375 0-0.492 0.187-0.359 0.562 0.266 0.692 0.399 1.172 0.399 1.438l1.16-0.637 0.16-0.203zm-5.238 5.32c0.636-0.16 1.343-0.359 2.117-0.598-0.239-0.109-0.414-0.175-0.52-0.199-0.187-0.054-0.426-0.082-0.719-0.082-0.32 0-0.535 0.067-0.64 0.199-0.133 0.188-0.266 0.348-0.399 0.481l0.161 0.199zm-8.762-0.039 0.922-0.48c-0.481-0.641-0.84-1.067-1.082-1.278-0.375-0.32-0.746-0.48-1.121-0.48h-0.2l-0.32 0.039c-0.133 0.055-0.227 0.121-0.277 0.199-0.028 0.027-0.043 0.055-0.043 0.082 0.64 0.293 1.148 0.906 1.519 1.84l0.121 0.16 0.481-0.082zm24.719-6.68c-0.161-0.16-0.465-0.347-0.918-0.558-0.641-0.348-1.243-0.68-1.801-1l-0.442-0.242c0.27 0.242 0.602 0.64 1 1.199 0.481 0.64 0.79 1.187 0.922 1.64 0.348-0.265 0.586-0.414 0.719-0.437l0.52 0.797c0.082-0.16 0.121-0.387 0.121-0.68 0-0.32-0.039-0.558-0.121-0.719zm-23.278 2.801 0.36 0.039 2-0.039c-0.188-0.16-0.496-0.226-0.922-0.199-0.453 0-0.934 0.066-1.438 0.199zm3.641-0.722-0.32-0.399-0.801 0.082-0.442 0.277h0.481c0.16-0.027 0.519-0.011 1.082 0.04zm1.437-10.477c0.453-0.43 0.68 0.105 0.68 1.598l0.723-0.641c-0.215-2.559-0.387-3.957-0.524-4.199-0.183 0.105-0.371 0.105-0.558 0l-0.321 3.242zm5.563-9.32c0-0.293-0.067-0.536-0.203-0.723-0.184-0.184-0.356-0.277-0.52-0.277l-1.121-0.082c-0.316-0.188-0.586-0.293-0.797-0.321 0.078 0.508 0.36 0.895 0.84 1.16 0.481 0.266 1.078 0.348 1.801 0.243zm-2.402 3.398 0.281-0.601c0-0.239-0.067-0.438-0.199-0.598-0.137-0.188-0.297-0.281-0.481-0.281-0.133 0.265 0 0.761 0.399 1.48zm-8.598-12.84c-0.242-0.215-0.524-0.32-0.844-0.32-0.316 0-0.586 0.109-0.797 0.32-0.242 0.239-0.359 0.52-0.359 0.84 0 0.293 0.117 0.547 0.359 0.762 0.211 0.238 0.481 0.359 0.797 0.359 0.32 0 0.602-0.121 0.844-0.359 0.211-0.215 0.316-0.469 0.316-0.762 0-0.32-0.105-0.601-0.316-0.84zm-5.402 29.36c0.187-0.079 0.281-0.2 0.281-0.36 0-0.133-0.094-0.254-0.281-0.359-0.215-0.082-0.454-0.121-0.719-0.121-0.293 0-0.535 0.039-0.723 0.121-0.211 0.105-0.316 0.226-0.316 0.359 0 0.16 0.105 0.281 0.316 0.36 0.188 0.105 0.43 0.16 0.723 0.16 0.265 0 0.504-0.055 0.719-0.16zm0.8-2.918c-0.105-0.082-0.453-0.203-1.039-0.36-0.562-0.136-0.906-0.203-1.043-0.203-0.16 0.11-0.293 0.254-0.398 0.442l2.48 0.121zm-8.718 1.957c-0.188-0.078-0.403-0.118-0.641-0.118-0.242 0-0.441 0.04-0.602 0.118-0.16 0.082-0.238 0.175-0.238 0.281 0 0.133 0.078 0.226 0.238 0.281 0.161 0.078 0.36 0.121 0.602 0.121 0.238 0 0.453-0.043 0.641-0.121 0.16-0.055 0.238-0.148 0.238-0.281 0-0.106-0.078-0.199-0.238-0.281zm-13.243-17.918 0.082-0.282c0.051-0.21 0.118-0.359 0.2-0.437l0.718-0.043c0.055 0.027 0.133 0.574 0.243 1.641l0.078-0.399-0.039-1.441c0-0.133-0.243-0.199-0.719-0.199-0.481 0-1.043 0.238-1.684 0.718l-0.359 0.442 1.32 0.039 0.16-0.039zm-0.078 2.519v0.039c0.16 0.508 0.25 0.817 0.278 0.922l0.121-0.16c0.054-0.133 0.066-0.266 0.039-0.402v-0.039c0-0.106-0.039-0.188-0.117-0.239h-0.161c-0.082-0.027-0.136-0.066-0.16-0.121zm14.078-15.558l0.52 0.839 0.043 0.04c0-0.028-0.016-0.149-0.043-0.36l0.199-0.961c0.32-0.691 0.977-1.293 1.961-1.801-0.746 0-1.371 0.215-1.879 0.641-0.535 0.453-0.801 0.988-0.801 1.602zm-0.078-0.121-0.082-1.122-0.078-0.16c-0.082-0.078-0.254-0.117-0.519-0.117-1.043 0-1.563 0.785-1.563 2.359 0 0.426 0.094 0.719 0.281 0.879 0.535 0.426 1.094 1.094 1.68 2l0.078 0.082v1.157l-1.199 0.082c0 0.078-0.094 0.172-0.277 0.281-0.348 0.211-0.536 0.332-0.563 0.359 0.082-0.027 0.402-0.015 0.961 0.039 0.641 0.055 1.133 0.133 1.48 0.239 0.481-0.719 0.719-1.344 0.719-1.879 0-0.746-0.265-1.266-0.801-1.559-1.171-0.613-1.878-1.027-2.117-1.242 0.371-0.637 1.039-1.105 2-1.398zm14.239-2.879c-0.692 0-1.282 0.132-1.758 0.398-0.508 0.293-0.762 0.629-0.762 1l2.52-1.398zm-2.239 13.078 0.117 0.121c-0.105-0.426-0.144-0.469-0.117-0.121z" inkscape:connector-curvature="0"/>
      <path id="path26" style="fill-rule:evenodd;fill:#876745" d="m45.879 41.037 0.082 0.082 1.359 0.199v-0.801l-0.359-0.117c-0.481 0.106-0.84 0.317-1.082 0.637zm-12 0.441 0.043 0.039 1.277 0.2c1.067 0.109 2.039 0.187 2.922 0.242-0.293-0.426-0.496-0.719-0.601-0.879-0.215-0.242-0.481-0.363-0.801-0.363-0.614 0-1.559 0.253-2.84 0.761zm-3.719 0.121c-0.801-0.132-1.32-0.16-1.558-0.082-0.243 0.082-0.575 0.387-1 0.922 0.425 0.028 1.558 0.094 3.398 0.199l0.359-0.238-0.121-0.16c-0.265-0.188-0.625-0.402-1.078-0.641zm-3.16-0.922l1.199-0.48c0.375-0.453 0.387-0.852 0.039-1.199 0.188-0.028 0.043-0.039-0.437-0.039-1.199 0.265-2.133 0.64-2.801 1.121 0.105 0.051 0.266 0.144 0.48 0.277 0.161 0.137 0.239 0.227 0.239 0.281l1.281 0.039zm-5.16 0.801 2.238 0.84c-0.105-0.426-0.223-0.719-0.359-0.879-0.211-0.265-0.84-0.254-1.879 0.039zm-16.238-7.879c0.906 0.746 2.398 1.692 4.476 2.84 2.137 1.199 3.629 1.895 4.481 2.078-1.227-0.746-2.973-1.746-5.239-3-2.215-1.199-3.453-1.84-3.718-1.918zm46.796 6.239c0.11-0.106 0.161-0.227 0.161-0.36 0-0.16-0.051-0.293-0.161-0.398-0.105-0.11-0.238-0.16-0.398-0.16-0.133 0-0.254 0.05-0.359 0.16-0.106 0.105-0.161 0.238-0.161 0.398 0 0.133 0.051 0.254 0.161 0.36 0.105 0.105 0.226 0.16 0.359 0.16 0.16 0 0.293-0.055 0.398-0.16zm-3-3.641v-0.918h-2.558v0.918h2.558zm3.563 1.48v-1.398c-0.43-0.215-0.883-0.242-1.359-0.082-1.122 0.375-2.176 0.656-3.161 0.84l1 0.601 0.758 0.2 2.762-0.161zm-9.602 2.762 1.039-0.039c-0.293-0.297-0.652-0.562-1.078-0.801l-0.082 0.438 0.121 0.402zm-2.718-2.402c0.132 0.055 0.359 0.082 0.679 0.082 0.399 0 1.028-0.106 1.879-0.32l-0.64-0.36c-0.426-0.187-0.973-0.308-1.637-0.359-0.961-0.082-1.641 0.078-2.043 0.48l0.84 0.199c0.347 0.079 0.656 0.172 0.922 0.278zm6-0.637c0.105 0 0.199-0.043 0.281-0.121 0.051-0.082 0.078-0.16 0.078-0.242 0-0.106-0.027-0.199-0.078-0.278-0.082-0.054-0.176-0.082-0.281-0.082-0.082 0-0.161 0.028-0.243 0.082-0.078 0.079-0.117 0.172-0.117 0.278 0 0.082 0.039 0.16 0.117 0.242 0.082 0.078 0.161 0.121 0.243 0.121zm-3.36-3.082h3.321l-1.68-3.359-1.641 3.359zm-4.082-0.519c-0.933-0.266-1.547-0.375-1.84-0.321 0.082 0 0.188 0.094 0.321 0.281 0.187 0.184 0.281 0.36 0.281 0.52 1.172 0.188 1.934 0.281 2.277 0.281 0.481 0 1.414-0.136 2.801-0.402-1.519 0.055-2.801-0.066-3.84-0.359zm-3.238 1.398c-0.055-0.133-0.266-0.211-0.641-0.238-0.398 0-0.812 0.066-1.242 0.199l0.402 0.441c0.934-0.215 1.426-0.347 1.481-0.402zm-2.402-0.879c-0.454-0.453-0.747-0.734-0.879-0.84-0.055-0.027-0.625-0.371-1.719-1.039l-0.84 0.278c0.641 0.722 1.266 1.203 1.879 1.441 0.398 0.16 0.922 0.215 1.559 0.16zm4.679-3.641c-0.316 0.133-0.519 0.215-0.597 0.243l0.679 0.117c0.188-0.293 0.16-0.41-0.082-0.36zm1.961 0.723c-0.293-0.082-0.64-0.121-1.039-0.121-0.398 0-0.734 0.039-1 0.121-0.293 0.106-0.441 0.227-0.441 0.359 0 0.161 0.148 0.278 0.441 0.36 0.266 0.105 0.602 0.16 1 0.16 0.399 0 0.746-0.055 1.039-0.16 0.266-0.082 0.403-0.199 0.403-0.36 0-0.132-0.137-0.253-0.403-0.359zm-13.238 4.277c-0.055-0.132-0.16-0.265-0.32-0.398-0.133-0.082-0.321-0.148-0.563-0.199h-0.238c-0.32 0-0.586 0.066-0.801 0.199-0.211 0.16-0.32 0.348-0.32 0.559 0 0.214 0.109 0.386 0.32 0.519 0.215 0.16 0.481 0.242 0.801 0.242s0.586-0.082 0.801-0.242c0.214-0.133 0.32-0.305 0.32-0.519v-0.161zm-5 0.321c0.344-0.188 0.586-0.348 0.719-0.481-0.106-0.105-0.293-0.133-0.559-0.078-0.242 0.055-0.453 0.133-0.641 0.238 0.133 0.133 0.293 0.243 0.481 0.321zm-4.68-2.36c0.078 0 0.387-0.105 0.918-0.32 0.641-0.215 1.121-0.414 1.442-0.601l-2.121-0.2-1.161 0.282-0.199 0.32c0.078 0 0.199 0.094 0.36 0.281 0.214 0.16 0.468 0.238 0.761 0.238zm8.16-1.64c0-0.106-0.027-0.16-0.082-0.16-0.027 0.48 0.067 0.761 0.282 0.839 0.746-0.48 1.132-0.734 1.16-0.757l-0.481-0.161-0.879 0.239z" inkscape:connector-curvature="0"/>
      <path id="path28" style="fill-rule:evenodd;fill:#634c33" d="m41.879 28.478h0.043l0.437 0.239-1.121-1.477c-0.183-0.055-0.277 0.16-0.277 0.637 0 0.215 0.012 0.363 0.039 0.441l0.039 0.039c0.027 0.027 0.066 0.027 0.121 0l0.719 0.121zm-4.277 0.762c0.343-1.094 0.597-1.762 0.757-2l0.321-3.242c0.187 0.105 0.375 0.105 0.558 0 0.137 0.242 0.309 1.64 0.524 4.199 0.183-0.078 0.476-0.078 0.879 0-0.082-2.105-0.336-3.652-0.762-4.637-0.426-0.961-0.891-1.308-1.399-1.043-0.535 0.266-0.949 1.067-1.242 2.403-0.316 1.386-0.437 2.679-0.359 3.879l0.199 0.039c0.16 0.082 0.336 0.214 0.524 0.402zm-2.524-13.523-0.238-1.079c-0.051 0.106-0.227 0.508-0.52 1.2-0.375 0.668-0.601 1.066-0.679 1.199l0.121 0.48c0.133-0.078 0.332-0.277 0.597-0.597 0.293-0.426 0.536-0.828 0.719-1.203zm-0.68 2.16c-0.132 0.136-0.199 0.414-0.199 0.84 0.188 1.574 0.281 2.507 0.281 2.8 0.133-0.906 0.106-2.117-0.082-3.64zm-0.32 2.32c0.082-0.504 0.016-1.238-0.199-2.199-0.024-0.028-0.039 0.199-0.039 0.679 0 0.266 0.055 0.575 0.16 0.922 0.055 0.371 0.078 0.575 0.078 0.598zm-2.476 0.562c-0.188-0.027-0.469-0.027-0.84 0-0.481 0.079-0.934 0.305-1.364 0.68l-0.32 0.438c1.762-0.133 3.055 0.496 3.883 1.882 0.613 0.958 0.918 2.04 0.918 3.239 0 0.242-0.332 0.84-1 1.801l0.519 0.359c0.961-0.934 1.442-1.895 1.442-2.879 0-0.641-0.281-1.199-0.84-1.68-0.559-0.507-0.84-1.066-0.84-1.679l0.719-1.723c-0.133 0.082-0.359 0.121-0.68 0.121-0.293 0-0.613-0.078-0.961-0.238-0.398-0.215-0.613-0.321-0.636-0.321zm-3.282 9.079 0.239 0.039-0.161-0.317c-0.05-1.281-0.039-2.336 0.043-3.16 0.028-0.535 0.133-1.414 0.321-2.641-0.137-0.722-0.375-1.253-0.723-1.601-0.133-0.133-0.414-0.305-0.84-0.52 0.266 0.321 0.508 0.774 0.723 1.36 0.183 0.453 0.277 0.785 0.277 1 0 0.32-0.094 1.16-0.277 2.519-0.16 1.227-0.27 1.977-0.32 2.242-0.774-0.933-1.403-1.628-1.883-2.082-0.586-0.503-1.184-0.867-1.797-1.078 0.238 0.211 0.84 0.801 1.797 1.758 0.883 0.883 1.386 1.453 1.519 1.723l0.364 0.078c0.265 0.105 0.531 0.242 0.796 0.402l-0.078 0.278zm-6.8-0.68h1.519c0.266-0.188 0.563-0.441 0.883-0.758 0.316-0.32 0.476-0.523 0.476-0.601 0-0.266-0.093-0.641-0.277-1.122-0.187-0.503-0.293-0.824-0.32-0.96-0.746 0.64-1.508 1.789-2.281 3.441zm-8.719-8.918-0.403 0.117-0.597 0.203c0.453 0.211 0.867 0.492 1.238 0.84 0.668 0.637 1.016 1.399 1.039 2.277 0.242-0.183 0.496-0.371 0.762-0.558 0.187-0.082 0.441-0.121 0.762-0.121 0.16 0 0.453 0.172 0.878 0.519 0.559 0.426 0.946 0.922 1.161 1.481 0.054-0.371 0.011-0.828-0.121-1.36-0.079-0.535-0.215-0.933-0.399-1.199l0.359 0.278c0.348 0.453 0.719 1.042 1.122 1.761l0.199-1.078c-0.321-0.43-0.856-0.816-1.602-1.16-0.801-0.43-1.558-0.59-2.277-0.481l0.039-1.042c0-0.426-0.133-0.852-0.402-1.278-0.239-0.082-0.625 0.055-1.161 0.399l0.641 0.722-1.238-0.32zm-0.84 8.32c0.773 1.117 1.211 1.785 1.32 2l-0.441-1.761c-0.16-0.321-0.399-0.668-0.719-1.04l-0.16 0.801zm4.559 0.957 0.199 0.2 0.242-0.559-0.441 0.359zm-5 1.242 0.359-0.042-0.199-1.559c-0.16 0.375-0.254 0.734-0.282 1.082-0.05 0.32-0.011 0.492 0.122 0.519zm-6.52-0.601 0.078-1.481 0.481 0.68c-0.079-0.613-0.106-0.918-0.079-0.918-0.132-0.933-0.32-1.586-0.558-1.961l0.078 3.68zm-3.641-20.758c0.028 0.453-0.054 1.399-0.238 2.84 0.453-0.16 1.16-0.188 2.117-0.082 0 0.105 0.242 0.332 0.723 0.68-0.293 0.027-0.641 0.148-1.039 0.359l-0.402 0.32c1.441 0.11 2.492 0.43 3.16 0.961l0.398 0.641c-0.156-1.199-0.238-2.16-0.238-2.879 0-0.137 0.121-0.363 0.359-0.68 0.293-0.375 0.641-0.695 1.039-0.961 0.055-0.082 0.176-0.187 0.364-0.32 0.16-0.215 0.238-0.469 0.238-0.762 0-0.664-0.387-1-1.16-1-0.426 0-0.852 0.16-1.282 0.481-0.476 0.32-0.839 0.801-1.078 1.441-0.187-0.32-0.492-0.558-0.922-0.719-0.453-0.132-0.773-0.226-0.957-0.281 0.028 0 0.305-0.055 0.84-0.16 0.321-0.078 0.481-0.266 0.481-0.559 0-0.695-0.457-1.043-1.364-1.043-0.371 0-0.636 0.137-0.796 0.403-0.137 0.265-0.215 0.707-0.243 1.32zm7.52 3.559c0.055-0.559 0.055-0.961 0-1.2-0.024 0.239-0.039 0.481-0.039 0.719-0.028 0.453-0.012 0.614 0.039 0.481zm11.121-3.321-0.16 0.801c-0.051-0.293-0.227-0.695-0.52-1.199-0.215 0-0.414 0.012-0.601 0.039-0.504 0.051-0.973 0.199-1.399 0.438 0.028 0.082 0.039 0.16 0.039 0.242-0.054 0.32-0.453 0.668-1.199 1.039-0.105 0.242-0.16 0.48-0.16 0.719 0 0.457-0.012 0.894-0.039 1.32-0.082 0.453-0.121 0.789-0.121 1 0.082 0.562 0.121 0.961 0.121 1.203 0.027-0.563 0.211-1.066 0.559-1.523l-0.079-0.04c0.028-0.425 0.184-0.707 0.481-0.839l0.199 0.199c0.051-0.024 0.106-0.051 0.16-0.078 0.879-0.719 1.946-1.082 3.199-1.082 0.321 0.187 0.52 0.668 0.598 1.441 1.281 0.027 2.481 0.242 3.602 0.641 1.308 0.453 2.281 0.746 2.922 0.879-0.27-0.079-0.497-0.321-0.68-0.719-0.297-0.535-0.442-1.188-0.442-1.961-0.187-0.215-0.347-0.348-0.48-0.399-0.32-0.136-0.586-0.414-0.801-0.843l0.879-0.078c0.242 0.16 0.469 0.492 0.684 1 0.183-0.215 0.586-0.641 1.199-1.282 0.664-0.558 1.332-0.851 2-0.879 0.133 0 0.277 0.079 0.437 0.239 0.243 0.32 0.297 0.828 0.161 1.519 0.453-0.371 1.082-0.664 1.882-0.879 0.559-0.109 1-0.16 1.321-0.16 0-0.027 0.023-0.054 0.078-0.082 0.027-0.105 0.039-0.305 0.039-0.597 0-0.586-0.16-1.055-0.481-1.403-0.32-0.293-0.476-0.453-0.476-0.48 0-0.852 0.476-1.664 1.437-2.438 0.801-0.668 1.496-1.027 2.082-1.082 0.211-0.347 0.332-0.558 0.36-0.64-0.16-0.133-0.52-0.348-1.082-0.641l-1.199-0.117-2.52 1.402c-0.133 0.32-0.238 0.535-0.32 0.641-0.078 0.16-0.305 0.242-0.68 0.242-0.293 0-0.465-0.055-0.52-0.16-0.027-0.028-0.039-0.094-0.039-0.203l-1.242 0.32c-0.211 0.453-0.586 0.867-1.121 1.242-0.476 0.293-0.73 0.438-0.758 0.438l0.559 2.48-0.32-0.281c-0.399-0.211-0.637-0.332-0.719-0.36h-0.039c-0.215-0.027-0.481 0.016-0.801 0.122-0.32 0.105-0.535 0.199-0.641 0.281 0-0.055 0.243-0.641 0.719-1.762 0.508-1.117 0.828-1.957 0.961-2.519-0.371-0.348-0.664-0.719-0.879-1.122-0.187 0.43-0.535 0.641-1.039 0.641-0.16 0-0.32-0.117-0.48-0.359-0.106-0.106-0.227-0.254-0.36-0.442l-1.242 0.16c-0.984 0.508-1.641 1.11-1.961 1.801l-0.199 0.961c0.027 0.215 0.043 0.332 0.043 0.36l-0.043-0.04-0.52-0.839-0.078-0.121c-0.961 0.293-1.629 0.761-2 1.402 0.239 0.211 0.946 0.625 2.117 1.238 0.536 0.293 0.801 0.813 0.801 1.559 0 0.535-0.238 1.16-0.719 1.883-0.347-0.11-0.839-0.188-1.48-0.243-0.559-0.05-0.879-0.066-0.961-0.039 0.027-0.027 0.215-0.148 0.563-0.359 0.183-0.109 0.277-0.199 0.277-0.281l1.199-0.082v-1.16l-0.078-0.079zm-5.398 8.282-0.082-1.203-0.122 0.96 0.204 0.243zm0.519-2.403-0.48 0.2 0.32-0.118 0.16-0.082zm8.719 2.723c-0.16-0.457-0.106-0.84 0.16-1.16 0.293 0.105 0.586 0.304 0.879 0.597 0-0.32-0.16-0.597-0.481-0.839-0.32-0.211-0.718-0.321-1.199-0.321v0.602l0.403 1.121h0.238zm6-1.961-0.442 0.281c0.297-0.16 0.524-0.027 0.68 0.399l-0.238-0.68zm9.039-4.68c-0.32 0.184-0.547 0.305-0.68 0.36-0.265 0.133-0.371 0.011-0.32-0.36 0.055-0.242 0.226-0.613 0.519-1.121 0.297-0.453 0.442-0.707 0.442-0.761-0.266-0.266-0.453-0.465-0.559-0.598-0.215-0.215-0.308-0.402-0.281-0.559-0.188 0.504-0.305 0.824-0.359 0.957-0.055 0.215-0.082 0.481-0.082 0.801 0.16 1.84 0.242 2.949 0.242 3.32 0.027-0.238 0.16-0.586 0.398-1.039 0.215-0.425 0.442-0.75 0.68-0.961v-0.039zm1.402-1.722-0.359 1.203 2.797-1.043 0.16-0.199-0.957-1.2c0-0.746 0.117-1.16 0.359-1.238 0.16-0.055 0.504-0.16 1.039-0.32l0.039 1.918c0.536 0 1.016 0.16 1.442 0.48 0.371 0.375 0.558 0.813 0.558 1.321l0.243-0.36 0.359-0.082c-0.055-0.293 0-0.879 0.16-1.758 0.133-1.015 0.199-1.64 0.199-1.882l-0.961 1.042c-0.054-0.132-0.171-0.269-0.359-0.402-0.188-0.105-0.375-0.332-0.559-0.68l0.161-1.199c-0.161 0-0.309 0.067-0.442 0.199-0.508-0.265-1.015-0.453-1.519-0.558 0.054-0.027 0.281-0.11 0.679-0.242 0.453-0.051 0.746-0.051 0.879 0l0.199-0.039-0.078 0.16 0.282-0.121-0.204-0.039c-0.32-0.239-0.543-0.707-0.679-1.399l1.84-0.203 0.121 0.043c-0.321-0.215-0.758-0.293-1.321-0.242 0.215-0.293 0.481-0.586 0.801-0.879-0.375 0.133-0.613 0.199-0.719 0.199-0.16-0.027-0.519-0.199-1.082-0.519-0.089 0.195-0.183 0.421-0.281 0.679-0.238 0.586-0.383 1.016-0.437 1.282v0.078l-0.082 0.363v-0.082c-0.079 0.133-0.161 0.309-0.239 0.519-0.187 0.481-0.32 0.829-0.398 1.04-0.348 0.082-0.617-0.118-0.801-0.598-0.133-0.32-0.199-0.602-0.199-0.84 0-0.32 0.012-0.52 0.039-0.602 0.027-0.05 0.066-0.093 0.117-0.117 0.242 0.051 0.453 0.184 0.641 0.399 0.027-0.668-0.051-1.043-0.239-1.121-1.253 0.695-1.878 1.175-1.878 1.441 0 0.238 0.105 0.48 0.32 0.719 0.183 0.242 0.277 0.48 0.277 0.719 0 0.214-0.039 0.414-0.121 0.601-0.105 0.16-0.133 0.375-0.078 0.641 0.48 0.773 0.719 1.453 0.719 2.039 0 0.242-0.039 0.453-0.117 0.64-0.082 0.161-0.188 0.239-0.321 0.239zm2.918 7.043c0.164 0 0.336 0.093 0.52 0.277 0.136 0.187 0.203 0.43 0.203 0.723 0.238 0.293 0.359 0.851 0.359 1.679l0.84-0.082 0.039-0.039 0.078-0.199c0.137-0.32 0.254-0.773 0.364-1.359 0.132-0.641 0.199-1.121 0.199-1.442 0-0.668-0.227-1.293-0.68-1.879 0 0.641-0.199 1.172-0.601 1.598-0.372 0.48-0.813 0.719-1.321 0.723zm-1.039-2.801c0 0.293 0.051 0.48 0.16 0.558 0.055 0.028 0.106 0.028 0.16 0 0.692-0.293 1.254-0.48 1.68-0.558 0.426 0 1.051 0.121 1.879 0.359l0.121-0.281c0.051-0.238 0.078-0.531 0.078-0.879-1.011-0.293-1.863-0.426-2.558-0.402-1.012 0.031-1.52 0.429-1.52 1.203zm-9.238-5.641c0.211 0.239 0.316 0.52 0.316 0.84 0 0.293-0.105 0.547-0.316 0.762-0.242 0.238-0.524 0.359-0.844 0.359-0.316 0-0.586-0.121-0.797-0.359-0.242-0.215-0.359-0.469-0.359-0.762 0-0.32 0.117-0.601 0.359-0.84 0.211-0.215 0.481-0.32 0.797-0.32 0.32 0 0.602 0.105 0.844 0.32zm-19.363 22.442-0.079-0.321h-0.16l0.239 0.321zm-5.239-12.762c-0.027-0.586-0.215-1.051-0.558-1.399-0.321-0.347-0.696-0.496-1.121-0.441-0.453 0.082-0.813 0.332-1.082 0.762-0.239 0.453-0.348 0.933-0.321 1.437 0.641-0.48 1.203-0.718 1.684-0.718 0.476 0 0.719 0.066 0.719 0.199l0.039 1.441-0.078 0.399-0.321-0.121c0.239 1.093 0.438 1.64 0.598 1.64s0.309-0.226 0.441-0.68c0.106-0.425 0.16-0.96 0.16-1.597v-0.602l-0.16-0.32zm-1.601 3.719c0.375 0.215 0.469 0.082 0.281-0.399 0-0.187-0.039-0.32-0.121-0.398-0.051-0.082-0.172-0.176-0.359-0.281-0.161 0.078-0.348 0.144-0.559 0.199-0.133 0.054-0.027 0.215 0.32 0.48 0.024 0.055 0.078 0.094 0.16 0.121h0.161c0.078 0.051 0.117 0.133 0.117 0.239v0.039zm-2.239-10.598c0.079-0.082 0.188-0.121 0.321-0.121 0.105 0 0.211 0.039 0.32 0.121 0.051 0.078 0.078 0.172 0.078 0.281 0 0.133-0.027 0.239-0.078 0.317-0.109 0.054-0.215 0.082-0.32 0.082-0.133 0-0.242-0.028-0.321-0.082-0.082-0.078-0.121-0.184-0.121-0.317 0-0.109 0.039-0.203 0.121-0.281zm21.2 9.598 1.441 0.722-0.359-0.32c-0.481-0.266-0.84-0.402-1.082-0.402zm-3.719-1.477c-0.133 0.106-0.199 0.238-0.199 0.399 0 0.187 0.066 0.332 0.199 0.441 0.105 0.133 0.238 0.199 0.398 0.199 0.161 0 0.309-0.066 0.442-0.199 0.078-0.109 0.121-0.254 0.121-0.441 0-0.161-0.043-0.293-0.121-0.399-0.133-0.137-0.281-0.203-0.442-0.203-0.16 0-0.293 0.066-0.398 0.203zm-0.281-8.242c-0.321-0.399-0.481-0.895-0.481-1.481 0-0.613 0.16-1.132 0.481-1.558 0.293-0.402 0.679-0.602 1.16-0.602 0.453 0 0.828 0.2 1.121 0.602 0.32 0.426 0.48 0.945 0.48 1.558 0 0.586-0.16 1.082-0.48 1.481-0.293 0.453-0.668 0.68-1.121 0.68-0.481 0-0.867-0.227-1.16-0.68zm0.242-4.078c-0.188-0.082-0.414-0.403-0.684-0.961l0.364-0.961c0.343 0.535 0.945 1.027 1.796 1.48 0.856 0.375 1.375 0.614 1.563 0.719l-0.762-0.078c-1.414-0.105-2.172-0.176-2.277-0.199zm7.316 1.078c0.082 0.16 0.121 0.359 0.121 0.601 0 0.239-0.039 0.438-0.121 0.598-0.133 0.188-0.265 0.281-0.398 0.281-0.16 0-0.281-0.093-0.36-0.281-0.132-0.16-0.199-0.359-0.199-0.598 0-0.242 0.067-0.441 0.199-0.601 0.079-0.16 0.2-0.242 0.36-0.242 0.133 0.004 0.265 0.082 0.398 0.242zm-1.957-1.559 1.078-1.242c-0.293 0-0.547 0.121-0.757 0.36-0.215 0.269-0.321 0.562-0.321 0.882z" inkscape:connector-curvature="0"/>
      <path id="path30" style="fill-rule:evenodd;fill:#677366" d="m13.801 8.318c-0.028-0.051-0.082-0.117-0.16-0.199-0.106-0.133-0.254-0.199-0.442-0.199-0.16 0-0.304 0.066-0.437 0.199-0.055 0.082-0.094 0.133-0.121 0.16-0.028 0.105-0.039 0.199-0.039 0.281 0 0.157 0.05 0.305 0.16 0.438 0.133 0.109 0.277 0.16 0.437 0.16 0.188 0 0.336-0.051 0.442-0.16 0.132-0.133 0.199-0.281 0.199-0.438 0-0.082-0.012-0.16-0.039-0.242zm27.078 13.082c0-0.055-0.024-0.109-0.078-0.16-0.082-0.027-0.188-0.043-0.321-0.043-0.105 0-0.199 0.016-0.281 0.043-0.054 0.051-0.078 0.105-0.078 0.16 0 0.051 0.024 0.106 0.078 0.16 0.082 0.024 0.176 0.039 0.281 0.039 0.133 0 0.239-0.015 0.321-0.039 0.054-0.054 0.078-0.109 0.078-0.16zm-0.801-0.281c0-0.16-0.117-0.293-0.359-0.402-0.239-0.106-0.531-0.157-0.879-0.157s-0.641 0.051-0.879 0.157c-0.242 0.109-0.359 0.242-0.359 0.402 0 0.133 0.117 0.254 0.359 0.359 0.238 0.106 0.531 0.16 0.879 0.16s0.64-0.054 0.879-0.16c0.242-0.105 0.359-0.226 0.359-0.359zm0-9-0.316 0.68c1.679-0.188 2.769-0.375 3.277-0.559-0.773-0.293-1.758-0.336-2.961-0.121zm-6.316-0.719c0.078 0.078 0.172 0.117 0.277 0.117 0.133 0 0.242-0.039 0.32-0.117 0.082-0.082 0.121-0.176 0.121-0.281 0-0.133-0.039-0.242-0.121-0.32-0.078-0.055-0.187-0.082-0.32-0.082-0.105 0-0.199 0.027-0.277 0.082-0.082 0.078-0.121 0.187-0.121 0.32 0 0.105 0.039 0.199 0.121 0.281zm-1.282 0.879c0.321 0 0.598-0.027 0.84-0.082 0.215-0.078 0.321-0.172 0.321-0.281 0-0.078-0.106-0.157-0.321-0.239-0.242-0.078-0.519-0.117-0.84-0.117-0.347 0-0.625 0.039-0.839 0.117-0.243 0.082-0.36 0.161-0.36 0.239 0 0.109 0.117 0.203 0.36 0.281 0.214 0.055 0.492 0.082 0.839 0.082zm2.719-5.641c0.16 0.133 0.375 0.2 0.641 0.2 0.265 0 0.492-0.067 0.68-0.2 0.187-0.105 0.281-0.226 0.281-0.359s-0.094-0.266-0.281-0.402c-0.188-0.078-0.415-0.118-0.68-0.118-0.266 0-0.481 0.04-0.641 0.118-0.187 0.136-0.277 0.269-0.277 0.402s0.09 0.254 0.277 0.359zm8.563 5.602c-0.137-0.055-0.27-0.066-0.403-0.043l-0.199 0.043c0.371 0.211 0.625 0.293 0.762 0.238l-0.16-0.238zm-20.684 11.16c0.297 0.184 0.641 0.277 1.043 0.277 0.399 0 0.758-0.093 1.078-0.277 0.293-0.215 0.442-0.457 0.442-0.723 0-0.238-0.149-0.464-0.442-0.679-0.32-0.188-0.679-0.281-1.078-0.281-0.402 0-0.746 0.093-1.043 0.281-0.316 0.215-0.476 0.441-0.476 0.679 0 0.266 0.16 0.508 0.476 0.723zm-15.277-0.48c-0.746 0.132-1.774 0.414-3.082 0.839-1.414 0.426-1.852 0.641-1.321 0.641 1.977-0.16 3.442-0.656 4.403-1.48zm0.758 0.519h0.882v-0.402h-0.882v0.402zm3.281-10.16v0.719l0.762 0.121-0.762-0.84zm-7.36-2c-0.082 0.078-0.121 0.172-0.121 0.281 0 0.133 0.039 0.239 0.121 0.317 0.079 0.054 0.188 0.082 0.321 0.082 0.105 0 0.211-0.028 0.32-0.082 0.051-0.078 0.078-0.184 0.078-0.317 0-0.109-0.027-0.203-0.078-0.281-0.109-0.082-0.215-0.121-0.32-0.121-0.133 0-0.242 0.039-0.321 0.121z" inkscape:connector-curvature="0"/>
    </g>
  </g>
<metadata><rdf:RDF><cc:Work><dc:format>image/svg+xml</dc:format><dc:type rdf:resource="http://purl.org/dc/dcmitype/StillImage"/><cc:license rdf:resource="http://creativecommons.org/licenses/publicdomain/"/><dc:publisher><cc:Agent rdf:about="http://openclipart.org/"><dc:title>Openclipart</dc:title></cc:Agent></dc:publisher></cc:Work><cc:License rdf:about="http://creativecommons.org/licenses/publicdomain/"><cc:permits rdf:resource="http://creativecommons.org/ns#Reproduction"/><cc:permits rdf:resource="http://creativecommons.org/ns#Distribution"/><cc:permits rdf:resource="http://creativecommons.org/ns#DerivativeWorks"/></cc:License></rdf:RDF></metadata></svg>
