<?xml version="1.0" standalone="no"?>
<!DOCTYPE svg PUBLIC "-//W3C//DTD SVG 20010904//EN"
 "http://www.w3.org/TR/2001/REC-SVG-20010904/DTD/svg10.dtd">
<svg version="1.0" xmlns="http://www.w3.org/2000/svg"
 width="128.000000pt" height="64.000000pt" viewBox="0 0 1280.000000 640.000000"
 preserveAspectRatio="xMidYMid meet">
<metadata>
Created by potrace 1.15, written by Peter Selinger 2001-2017
</metadata>
<g transform="translate(0.000000,640.000000) scale(0.100000,-0.100000)"
fill="#000000" stroke="none">
<path d="M3514 5545 c-37 -59 -38 -60 -131 -49 -34 4 -53 12 -53 20 0 13 -80
74 -98 74 -13 0 -105 -110 -120 -143 -16 -38 -63 -64 -146 -79 -85 -16 -458
-17 -1111 -4 -450 9 -627 3 -743 -26 -39 -10 -45 -9 -58 11 -13 18 -25 21 -88
21 -47 0 -77 -5 -84 -12 -5 -7 -13 -51 -16 -98 -4 -47 -10 -114 -14 -150 l-7
-65 -190 0 -189 0 -8 -30 c-19 -73 -288 -2314 -288 -2399 l0 -33 90 5 90 5 0
-109 c0 -60 3 -119 6 -131 l6 -22 249 6 249 6 0 -311 0 -312 -430 0 -430 0 0
-115 0 -115 460 -2 c253 -2 531 -3 618 -3 l157 0 5 62 c3 34 10 67 17 74 15
15 286 13 292 -2 2 -6 31 -28 64 -50 l61 -38 29 44 c16 25 37 45 46 45 44 0
189 21 249 36 77 19 191 70 242 108 167 125 323 359 504 754 21 46 40 81 42
79 2 -2 -3 -53 -10 -113 -28 -206 -47 -416 -58 -622 -13 -263 -12 -288 15
-341 60 -120 211 -102 299 36 21 34 40 52 53 52 18 1 20 -6 22 -84 7 -292 200
-557 483 -661 63 -23 95 -28 206 -32 112 -4 141 -1 209 17 145 40 285 131 381
249 90 109 163 298 164 420 0 73 24 46 32 -36 25 -247 182 -474 402 -582 159
-78 376 -92 541 -36 213 73 381 242 462 467 24 68 27 87 27 229 1 101 -3 167
-12 189 -6 19 -11 35 -10 37 3 2 596 16 1331 30 l337 7 0 -205 c0 -145 3 -207
12 -216 9 -9 178 -12 699 -12 378 0 694 3 703 6 14 5 16 35 16 224 0 126 4
221 9 225 6 3 210 8 454 12 l444 6 18 -72 c20 -84 16 -170 -10 -222 -10 -18
-56 -73 -101 -121 -76 -79 -84 -90 -84 -126 0 -22 6 -45 14 -51 9 -8 151 -10
507 -9 l494 3 10 23 c9 20 14 22 45 16 85 -19 137 -3 171 53 24 39 58 44 67
11 13 -49 84 -176 131 -234 89 -110 238 -204 375 -238 53 -14 101 -17 212 -14
78 2 142 7 141 11 -1 4 22 16 51 27 108 39 230 130 307 230 44 58 125 211 125
238 0 11 3 10 16 -2 11 -12 36 -16 97 -16 178 0 202 56 210 489 l4 235 -60
115 c-70 135 -105 188 -164 252 l-43 46 15 99 c8 55 18 151 22 214 12 221 -44
305 -239 366 l-58 18 0 43 c0 84 -41 148 -120 188 -115 58 -532 135 -738 135
l-72 0 6 28 c4 15 11 38 17 52 15 40 21 306 8 390 -20 130 -70 198 -117 160
-21 -18 -52 -129 -60 -215 -5 -61 -10 -75 -22 -73 -20 4 -107 147 -128 210
-20 60 -10 80 56 113 39 20 50 31 50 49 0 39 -88 125 -193 189 l-94 59 -6 63
c-8 106 -67 175 -149 175 -52 0 -113 -55 -132 -119 -10 -37 -17 -46 -35 -45
-11 0 -107 1 -212 2 l-191 2 -37 40 c-37 41 -70 51 -90 27 -37 -45 -56 -261
-71 -802 -22 -817 -21 -805 -38 -805 -13 0 -14 137 -10 1215 l5 1215 -21 6
c-12 3 -59 4 -106 2 l-85 -3 -3 -66 -3 -66 -212 4 c-117 2 -290 6 -384 9
l-173 6 0 64 0 64 -105 0 -105 0 0 -65 0 -64 -227 5 c-126 2 -305 7 -400 10
l-172 6 -3 45 -3 45 -100 0 -100 0 -3 -46 -3 -46 -277 5 c-152 3 -318 8 -369
11 l-92 6 -3 36 -3 37 -102 3 -102 3 -3 -38 -3 -38 -320 3 c-176 2 -332 6
-347 8 -19 4 -28 12 -28 25 0 18 -8 19 -105 19 -98 0 -105 -1 -105 -20 0 -19
-7 -20 -107 -20 -60 0 -226 3 -370 7 l-263 6 0 24 c0 23 -2 23 -101 23 -92 0
-101 -2 -106 -20 -5 -19 -14 -20 -173 -20 -92 0 -242 3 -333 7 l-167 6 0 34 0
33 -105 0 -105 0 0 -36 0 -37 -46 7 c-26 3 -85 6 -131 6 -84 0 -85 0 -79 24 5
21 1 24 -62 41 -37 10 -82 24 -100 31 l-33 13 -35 -54z m7107 -1378 c199 -35
311 -163 380 -434 25 -102 31 -267 11 -324 -47 -134 -212 -142 -582 -29 -193
60 -237 81 -258 127 -35 78 -15 443 32 596 27 90 29 91 196 83 80 -3 179 -12
221 -19z"/>
</g>
</svg>
